<?xml version="1.0" encoding="utf-8"?>
<!-- Generator: Adobe Illustrator 16.0.0, SVG Export Plug-In . SVG Version: 6.00 Build 0)  -->
<!DOCTYPE svg PUBLIC "-//W3C//DTD SVG 1.1//EN" "http://www.w3.org/Graphics/SVG/1.1/DTD/svg11.dtd">
<svg version="1.1" id="Layer_1" xmlns="http://www.w3.org/2000/svg" xmlns:xlink="http://www.w3.org/1999/xlink" x="0px" y="0px"
	 width="512px" height="512px" viewBox="0 0 512 512" enable-background="new 0 0 512 512" xml:space="preserve">
<g opacity="0.2">
	<path fill="#FFFFFF" d="M499.732,260.168c-2.152,2.712-3.978,5.671-5.634,8.71c3.187,2.75,6.468,5.328,9.831,7.724
		c-1.074,2.069-1.756,4.321-2.484,6.529c-0.622,2.246-1.171,4.514-1.434,6.84c-4.133,0.198-8.373,0.584-12.444,1.179
		c-0.292,3.458-0.292,6.91,0,10.362c4.071,0.6,8.312,0.986,12.444,1.185c0.263,2.326,0.812,4.594,1.434,6.84
		c0.729,2.208,1.41,4.46,2.484,6.529c-3.363,2.396-6.645,4.974-9.831,7.724c1.656,3.04,3.481,5.999,5.634,8.71
		c3.79-1.736,7.44-3.613,11.069-5.725c0.37,0.429,0.815,0.788,1.198,1.206v-8.421c-2.394-3.543-4.288-7.414-5.497-11.503
		c-2.229-7.59-2.229-15.856,0-23.446c1.209-4.09,3.104-7.966,5.497-11.509v-8.416c-0.383,0.418-0.828,0.772-1.201,1.206
		C507.173,263.781,503.522,261.904,499.732,260.168L499.732,260.168z"/>
	<path fill="#FFFFFF" d="M497.766,10.598c-0.017,0.697-0.169,1.329-0.579,1.897l-0.038-0.032c-0.364,0.584-0.975,0.986-1.581,1.222
		l0.006,0.016c-0.568,0.15-1.244,0.15-1.802-0.016l0.014-0.048c-0.603-0.204-1.238-0.573-1.632-1.142l0.037-0.032
		c-0.429-0.541-0.616-1.158-0.665-1.865h0.049c0.016-0.702,0.169-1.335,0.579-1.897l0.037,0.026c0.364-0.584,0.976-0.98,1.581-1.222
		l-0.005-0.017c0.568-0.155,1.243-0.15,1.801,0.017l-0.016,0.048c0.605,0.204,1.241,0.574,1.635,1.147l-0.038,0.026
		c0.43,0.536,0.617,1.158,0.665,1.871H497.766L497.766,10.598z M510.689,1.667c-0.364-0.568-0.716-1.136-1.123-1.667h-29.844
		c-0.389,0.531-0.727,1.104-1.072,1.667c-1.644-0.182-3.321-0.198-5.065-0.075c-0.442,1.121-0.863,2.251-1.132,3.431
		c1.228,1.276,2.63,2.391,4.034,3.324c-0.091,0.745-0.075,1.501-0.1,2.251h-0.048c0.04,0.75,0.04,1.501,0.147,2.251
		c-1.412,0.815-2.854,1.796-4.136,2.917c0.266,1.174,0.633,2.321,1.08,3.441c1.767,0.3,3.535,0.396,5.219,0.316
		c0.41,0.638,0.782,1.297,1.262,1.876l-0.037,0.027c0.437,0.616,0.917,1.201,1.439,1.742c-0.702,1.527-1.225,3.104-1.638,4.792
		c0.906,0.783,1.862,1.512,2.89,2.139c1.6-0.793,3.076-1.737,4.408-2.809c0.681,0.332,1.41,0.547,2.123,0.793l-0.016,0.043
		c0.721,0.225,1.457,0.413,2.194,0.568c0.343,1.592,0.845,3.249,1.504,4.83c1.192,0.091,2.388,0.118,3.581,0.027
		c0.828-1.555,1.466-3.254,1.916-4.856c0.737-0.171,1.469-0.375,2.182-0.611l-0.008-0.026c0.646-0.23,1.3-0.45,1.913-0.767
		c1.228,1.109,2.592,2.144,4.056,3.023c1.04-0.6,1.996-1.329,2.932-2.08c-0.289-1.796-0.696-3.452-1.326-5.065
		c0.512-0.552,0.979-1.142,1.401-1.769l0.038,0.027c0.469-0.59,0.83-1.26,1.225-1.903c0.426,0.048,0.882-0.005,1.311,0.021V1.748
		C511.568,1.742,511.113,1.646,510.689,1.667L510.689,1.667z"/>
	<path fill="#FFFFFF" d="M508.617,405.944c-2.369,0.799-4.637,1.892-6.802,3.136c-2.177,1.238-4.208,2.712-6.124,4.315
		c-2.467-1.646-5.061-3.179-7.773-4.589c-2.583,2.455-4.843,5.227-6.88,8.147c1.874,2.439,3.844,4.733,5.902,6.889
		c-1.271,2.144-2.386,4.411-3.192,6.775c-0.911,2.326-1.501,4.781-1.906,7.242c-2.959,0.327-5.947,0.82-8.946,1.484
		c-0.346,3.549-0.346,7.108,0,10.657c2.999,0.664,5.987,1.157,8.946,1.484c0.405,2.46,0.995,4.915,1.906,7.242
		c0.807,2.363,1.922,4.626,3.192,6.775c-2.059,2.149-4.028,4.449-5.902,6.888c2.037,2.922,4.297,5.693,6.88,8.148
		c2.713-1.415,5.307-2.948,7.773-4.589c1.919,1.603,3.947,3.077,6.124,4.315c2.165,1.243,4.433,2.337,6.802,3.136
		c-0.198,2.98-0.252,6.068-0.094,9.043c1.145,0.321,2.313,0.552,3.477,0.799v-18.499c-1.925-0.665-3.798-1.469-5.559-2.477
		c-6.471-3.65-11.515-9.745-14.013-16.703c-2.583-6.92-2.583-14.864,0-21.79c2.498-6.952,7.542-13.053,14.013-16.703
		c1.761-1.008,3.634-1.807,5.559-2.471v-18.504c-1.163,0.247-2.332,0.477-3.477,0.798
		C508.365,399.876,508.419,402.964,508.617,405.944L508.617,405.944z"/>
	<path fill="#FFFFFF" d="M244.012,46.694c0.262,2.327,0.812,4.594,1.434,6.84c0.729,2.209,1.41,4.46,2.484,6.529
		c-3.363,2.396-6.644,4.975-9.831,7.725c1.657,3.039,3.482,5.998,5.634,8.71c3.79-1.737,7.44-3.613,11.069-5.725
		c1.525,1.774,3.152,3.441,4.935,4.958c1.761,1.517,3.626,2.948,5.609,4.17c-1.536,3.827-2.908,7.762-4.106,11.793
		c3.026,1.672,6.162,3.189,9.451,4.299c2.259-3.532,4.307-7.049,6.215-10.78c2.256,0.595,4.508,1.211,6.832,1.463
		c2.294,0.461,4.653,0.386,6.977,0.52c0.78,4.031,1.756,8.057,2.924,12.077c3.452-0.097,6.899-0.697,10.268-1.453
		c-0.003-4.197-0.204-8.352-0.593-12.452c2.23-0.654,4.449-1.426,6.551-2.429c2.142-0.938,4.157-2.106,6.13-3.361
		c2.892,3.05,5.858,5.859,9.016,8.598c2.83-2.005,5.411-4.326,7.846-6.781c-2.284-3.533-4.707-6.926-7.256-10.168
		c1.578-1.716,2.935-3.635,4.219-5.575c1.278-1.957,2.388-4.004,3.334-6.143c4.068,1.002,8.137,1.791,12.24,2.375
		c1.303-3.221,2.198-6.577,2.957-9.959c-3.844-1.731-7.728-3.275-11.641-4.621c0.467-2.294,0.413-4.647,0.579-6.974
		c-0.166-2.327-0.112-4.68-0.579-6.974c3.913-1.345,7.797-2.889,11.641-4.621c-0.759-3.383-1.654-6.738-2.957-9.96
		c-4.104,0.584-8.172,1.373-12.24,2.375c-0.946-2.139-2.056-4.187-3.334-6.143c-1.284-1.94-2.641-3.86-4.219-5.575
		c2.364-3.013,4.594-6.181,6.73-9.435h-15.259c-0.356,0.364-0.724,0.708-1.077,1.078c-0.593-0.375-1.198-0.724-1.802-1.078H300.1
		c2.597,0.627,5.154,1.41,7.572,2.509c7.207,3.265,13.431,8.694,17.716,15.352c4.337,6.658,6.537,14.521,6.631,22.471
		c-0.094,7.944-2.294,15.813-6.631,22.471c-4.285,6.657-10.509,12.088-17.716,15.347c-7.164,3.259-15.347,4.546-23.189,3.313
		c-7.845-1.051-15.307-4.524-21.294-9.713c-6.012-5.184-10.448-12.12-12.686-19.694c-2.23-7.59-2.23-15.856,0-23.447
		c2.238-7.574,6.674-14.516,12.686-19.694C268.2,4.572,274.269,1.528,280.709,0h-15.628c0.099,0.247,0.166,0.515,0.265,0.761
		c-1.983,1.222-3.849,2.653-5.609,4.17c-1.782,1.512-3.409,3.184-4.937,4.958c-3.626-2.112-7.277-3.988-11.067-5.725
		c-2.152,2.712-3.977,5.671-5.634,8.711c3.187,2.75,6.468,5.328,9.831,7.724c-1.075,2.069-1.755,4.32-2.484,6.529
		c-0.622,2.246-1.171,4.514-1.434,6.84c-4.133,0.198-8.373,0.584-12.444,1.18c-0.292,3.457-0.292,6.909,0,10.361
		C235.639,46.11,239.878,46.496,244.012,46.694L244.012,46.694z"/>
	<path fill="#FFFFFF" d="M418.527,361.254c-0.045,1.86-0.452,3.543-1.541,5.055l-0.104-0.081c-0.968,1.554-2.597,2.621-4.21,3.253
		l0.013,0.038c-1.514,0.413-3.307,0.413-4.795-0.038l0.038-0.123c-1.611-0.542-3.3-1.533-4.353-3.05l0.104-0.081
		c-1.143-1.437-1.644-3.088-1.774-4.975h0.129c0.045-1.865,0.452-3.543,1.541-5.055l0.104,0.075c0.967-1.554,2.597-2.616,4.21-3.248
		l-0.013-0.043c1.514-0.413,3.307-0.407,4.795,0.043l-0.041,0.118c1.614,0.547,3.303,1.533,4.355,3.056l-0.104,0.075
		c1.142,1.437,1.644,3.088,1.774,4.98H418.527L418.527,361.254z M466.85,338.312c-4.704-0.799-9.413-1.056-13.9-0.847
		c-1.088-1.688-2.079-3.447-3.363-4.99l0.104-0.075c-1.163-1.646-2.441-3.189-3.833-4.642c1.866-4.069,3.257-8.26,4.355-12.758
		c-2.409-2.08-4.961-4.031-7.689-5.693c-4.267,2.102-8.195,4.615-11.75,7.483c-1.809-0.89-3.752-1.464-5.649-2.118l0.04-0.118
		c-1.919-0.601-3.881-1.104-5.849-1.506c-0.911-4.251-2.243-8.657-4.001-12.871c-3.179-0.241-6.36-0.321-9.539-0.064
		c-2.203,4.133-3.902,8.652-5.105,12.935c-1.96,0.445-3.908,0.986-5.809,1.624l0.021,0.064c-1.724,0.622-3.465,1.206-5.095,2.053
		c-3.271-2.97-6.907-5.714-10.804-8.063c-2.774,1.603-5.323,3.543-7.808,5.543c0.769,4.781,1.852,9.193,3.527,13.487
		c-1.362,1.479-2.605,3.05-3.729,4.717l-0.104-0.075c-1.249,1.576-2.209,3.355-3.26,5.065c-4.376-0.482-8.85-0.525-13.494-0.188
		c-1.174,2.986-2.297,5.998-3.016,9.129c3.275,3.404,7.004,6.373,10.748,8.85c-0.241,1.994-0.201,3.999-0.263,5.999h-0.129
		c0.104,2,0.107,4.004,0.392,5.999c-3.761,2.171-7.602,4.792-11.016,7.767c0.705,3.136,1.683,6.191,2.878,9.177
		c4.704,0.793,9.413,1.05,13.899,0.841c1.089,1.694,2.08,3.447,3.364,4.991l-0.104,0.075c1.163,1.646,2.441,3.189,3.833,4.642
		c-1.866,4.068-3.257,8.266-4.355,12.758c2.409,2.08,4.961,4.031,7.689,5.693c4.267-2.102,8.196-4.615,11.75-7.479
		c1.809,0.885,3.752,1.458,5.649,2.112l-0.04,0.123c1.919,0.595,3.881,1.099,5.849,1.507c0.911,4.245,2.243,8.651,4.001,12.864
		c3.179,0.241,6.36,0.322,9.539,0.07c2.203-4.139,3.902-8.657,5.105-12.935c1.96-0.45,3.908-0.992,5.809-1.63l-0.021-0.064
		c1.724-0.622,3.466-1.206,5.095-2.048c3.27,2.965,6.907,5.709,10.804,8.057c2.774-1.603,5.323-3.543,7.808-5.537
		c-0.77-4.787-1.852-9.193-3.527-13.492c1.362-1.479,2.605-3.05,3.729-4.717l0.104,0.075c1.249-1.576,2.209-3.355,3.259-5.065
		c4.377,0.482,8.851,0.525,13.495,0.188c1.174-2.98,2.297-5.998,3.016-9.128c-3.275-3.404-7.004-6.374-10.748-8.845
		c0.241-2,0.201-4.004,0.263-5.999h0.129c-0.104-2.005-0.107-4.009-0.392-6.003c3.761-2.171,7.602-4.792,11.016-7.762
		C469.022,344.348,468.045,341.292,466.85,338.312L466.85,338.312z"/>
	<path fill="#FFFFFF" d="M503.359,56.611c-1.518-0.616-3.048-1.201-4.607-1.699c0.019-3.045-0.104-6.063-0.341-9.118
		c-3.701-1.034-7.483-1.817-11.297-2.241c-1.38,2.712-2.643,5.511-3.782,8.309c-1.629-0.156-3.262-0.156-4.894-0.199
		c-1.632,0.043-3.265,0.043-4.894,0.199c-1.143-2.798-2.404-5.597-3.785-8.309c-3.813,0.423-7.593,1.207-11.294,2.241
		c-0.239,3.056-0.359,6.073-0.341,9.118c-1.56,0.499-3.09,1.083-4.607,1.699c-1.501,0.654-3.012,1.292-4.46,2.059
		c-2.125-2.134-4.374-4.24-6.689-6.208c-3.358,1.865-6.545,4.02-9.552,6.4c0.945,2.9,2.007,5.747,3.189,8.544
		c-1.255,1.051-2.424,2.192-3.605,3.323c-1.131,1.18-2.272,2.354-3.323,3.608c-2.798-1.185-5.647-2.246-8.547-3.189
		c-2.375,3.007-4.535,6.191-6.398,9.552c1.971,2.315,4.071,4.562,6.21,6.689c-0.769,1.447-1.406,2.954-2.058,4.455
		c-0.617,1.522-1.204,3.05-1.702,4.61c-3.048-0.016-6.063,0.102-9.121,0.343c-1.034,3.699-1.814,7.478-2.235,11.294
		c2.71,1.377,5.508,2.643,8.307,3.784c-0.156,1.63-0.153,3.259-0.201,4.895c0.048,1.629,0.045,3.264,0.201,4.894
		c-2.799,1.137-5.597,2.402-8.307,3.779c0.421,3.816,1.201,7.596,2.238,11.3c3.058,0.236,6.07,0.359,9.118,0.338
		c0.498,1.56,1.085,3.087,1.702,4.61c0.651,1.501,1.292,3.012,2.058,4.455c-2.139,2.128-4.239,4.374-6.21,6.689
		c1.863,3.361,4.023,6.545,6.398,9.558c2.899-0.949,5.749-2.01,8.547-3.194c1.051,1.259,2.192,2.428,3.323,3.607
		c1.182,1.131,2.351,2.272,3.605,3.323c-1.18,2.798-2.244,5.645-3.189,8.55c3.007,2.375,6.193,4.535,9.552,6.395
		c2.315-1.967,4.564-4.068,6.692-6.208c1.445,0.767,2.956,1.405,4.457,2.059c1.518,0.616,3.048,1.201,4.61,1.699
		c-0.021,3.045,0.099,6.063,0.338,9.118c3.701,1.035,7.482,1.817,11.297,2.241c1.378-2.712,2.643-5.511,3.782-8.309
		c1.629,0.155,3.262,0.155,4.894,0.198c1.632-0.043,3.265-0.043,4.894-0.198c1.143,2.798,2.404,5.596,3.785,8.309
		c3.813-0.423,7.593-1.206,11.294-2.241c0.239-3.056,0.359-6.073,0.341-9.118c1.56-0.499,3.09-1.083,4.607-1.699
		c1.5-0.654,3.012-1.292,4.459-2.059c1.33,1.335,2.771,2.595,4.182,3.881v-32.409c-0.622,0.708-1.23,1.431-1.897,2.096
		c-4.151,4.148-9.121,7.478-14.529,9.713c-5.406,2.246-11.244,3.393-17.135,3.404c-5.892-0.011-11.729-1.158-17.135-3.404
		c-5.408-2.235-10.378-5.564-14.529-9.713c-4.151-4.155-7.478-9.124-9.716-14.532c-2.246-5.409-3.396-11.241-3.401-17.132
		c0.006-5.896,1.155-11.729,3.401-17.138c2.238-5.408,5.564-10.377,9.716-14.532c4.151-4.149,9.121-7.478,14.529-9.713
		c5.406-2.246,11.243-3.393,17.135-3.398c5.891,0.005,11.726,1.152,17.135,3.398c5.408,2.235,10.378,5.564,14.529,9.713
		c0.667,0.665,1.275,1.388,1.897,2.096V54.789c-1.412,1.286-2.852,2.546-4.184,3.881C506.371,57.903,504.859,57.266,503.359,56.611
		L503.359,56.611z"/>
	<path fill="#FFFFFF" d="M494.702,77.49c-5.13-2.128-10.665-3.222-16.264-3.227c-5.599,0.005-11.134,1.099-16.264,3.227
		c-5.13,2.123-9.85,5.28-13.792,9.22c-3.942,3.945-7.1,8.663-9.223,13.792c-2.131,5.135-3.222,10.667-3.228,16.269
		c0.006,5.596,1.097,11.128,3.228,16.263c2.123,5.13,5.28,9.847,9.223,13.792c3.942,3.94,8.662,7.097,13.792,9.22
		c5.13,2.134,10.665,3.222,16.264,3.227c5.599-0.005,11.134-1.099,16.264-3.227c5.13-2.123,9.85-5.28,13.792-9.22
		c1.263-1.265,2.412-2.632,3.506-4.042v-9.584c-1.807,3.683-4.197,7.097-7.11,10.019c-3.477,3.474-7.634,6.25-12.142,8.115
		c-4.511,1.871-9.364,2.831-14.31,2.841c-4.945-0.011-9.799-0.97-14.31-2.841c-4.508-1.865-8.665-4.642-12.139-8.115
		c-3.474-3.479-6.253-7.633-8.118-12.142c-1.871-4.508-2.831-9.364-2.839-14.307c0.008-4.948,0.968-9.799,2.839-14.313
		c1.865-4.508,4.645-8.663,8.118-12.142c3.474-3.473,7.631-6.25,12.139-8.115c4.511-1.871,9.364-2.831,14.31-2.841
		c4.945,0.011,9.799,0.97,14.31,2.841c4.508,1.865,8.665,4.642,12.139,8.115c2.916,2.922,5.307,6.336,7.113,10.019v-9.584
		c-1.094-1.41-2.243-2.777-3.506-4.042C504.552,82.77,499.832,79.613,494.702,77.49L494.702,77.49z"/>
	<path fill="#FFFFFF" d="M236.429,177.773c2.498-6.953,7.542-13.053,14.012-16.703c6.403-3.656,14.135-5.167,21.466-3.774
		c7.279,1.287,14.114,5.157,18.882,10.887c4.781,5.714,7.414,13.031,7.47,20.487c-0.056,7.457-2.688,14.768-7.47,20.488
		c-4.768,5.73-11.603,9.601-18.882,10.887c-7.331,1.394-15.063-0.118-21.466-3.779c-6.47-3.65-11.514-9.745-14.012-16.703
		C233.846,192.643,233.846,184.698,236.429,177.773L236.429,177.773z M225.842,195.483c0.405,2.461,0.995,4.916,1.906,7.242
		c0.807,2.364,1.922,4.626,3.192,6.775c-2.058,2.149-4.028,4.449-5.902,6.888c2.037,2.921,4.296,5.693,6.88,8.148
		c2.712-1.415,5.307-2.948,7.772-4.589c1.919,1.603,3.948,3.077,6.125,4.315c2.166,1.244,4.433,2.337,6.802,3.136
		c-0.199,2.98-0.252,6.068-0.094,9.043c3.433,0.965,6.966,1.63,10.517,1.833c1.166-2.82,2.163-5.655,2.994-8.491
		c2.5-0.043,5.004-0.177,7.467-0.644c2.455-0.439,4.899-1.051,7.226-1.967c1.758,2.396,3.712,4.819,5.747,6.996
		c3.243-1.485,6.381-3.222,9.23-5.36c-0.914-2.906-1.967-5.714-3.155-8.421c1.898-1.635,3.688-3.377,5.313-5.291
		c1.579-1.941,3.034-3.978,4.267-6.159c2.954,0.745,5.846,1.265,8.863,1.656c1.611-3.179,2.825-6.566,3.65-10.035
		c-2.557-1.64-5.113-3.104-7.855-4.428c0.472-2.466,0.627-4.958,0.711-7.462c-0.084-2.503-0.239-5.001-0.711-7.461
		c2.742-1.33,5.299-2.793,7.855-4.428c-0.825-3.468-2.039-6.861-3.65-10.04c-3.018,0.396-5.91,0.917-8.863,1.662
		c-1.233-2.182-2.688-4.219-4.267-6.165c-1.625-1.908-3.415-3.65-5.313-5.291c1.188-2.702,2.238-5.511,3.155-8.416
		c-2.849-2.144-5.988-3.881-9.23-5.36c-2.035,2.176-3.988,4.599-5.747,6.995c-2.326-0.917-4.771-1.528-7.226-1.967
		c-2.463-0.466-4.967-0.6-7.467-0.643c-0.831-2.835-1.828-5.671-2.994-8.491c-3.551,0.198-7.084,0.868-10.517,1.828
		c-0.158,2.98-0.105,6.068,0.094,9.048c-2.37,0.799-4.637,1.893-6.802,3.136c-2.177,1.238-4.208,2.713-6.125,4.315
		c-2.466-1.646-5.06-3.179-7.772-4.589c-2.584,2.455-4.843,5.227-6.88,8.148c1.874,2.439,3.844,4.733,5.902,6.888
		c-1.27,2.145-2.385,4.412-3.192,6.775c-0.911,2.327-1.501,4.782-1.906,7.242c-2.959,0.327-5.947,0.82-8.947,1.485
		c-0.346,3.548-0.346,7.108,0,10.657C219.895,194.664,222.883,195.157,225.842,195.483L225.842,195.483z"/>
	<path fill="#FFFFFF" d="M356.425,112.193c4.979,0.836,9.721,3.313,12.982,7.086c3.297,3.72,5.117,8.47,5.157,13.342
		c-0.04,4.873-1.86,9.606-5.157,13.342c-3.262,3.774-8.003,6.24-12.982,7.081c-5.047,0.922-10.343-0.075-14.749-2.438
		c-4.468-2.354-7.915-6.368-9.651-10.882c-1.794-4.503-1.794-9.713,0-14.205c1.736-4.508,5.184-8.523,9.651-10.887
		C346.082,112.274,351.378,111.271,356.425,112.193L356.425,112.193z M341.949,103.081c-1.85,0.589-3.616,1.404-5.328,2.315
		c-1.705,0.927-3.305,2.026-4.836,3.222c-2.613-1.715-5.443-3.27-8.445-4.604c-1.272,1.361-2.615,2.648-3.715,4.165
		c1.447,2.985,3.185,5.789,5.165,8.352c-1.045,1.629-1.927,3.382-2.592,5.205c-0.734,1.796-1.232,3.693-1.563,5.602
		c-3.093,0.423-6.357,1.131-9.386,2.144c-0.135,1.876-0.198,3.747-0.038,5.628c3.037,1.275,6.274,2.203,9.424,2.798
		c0.33,1.903,0.828,3.795,1.563,5.591c0.665,1.828,1.547,3.586,2.592,5.205c-2.05,2.418-3.942,5.071-5.559,7.848
		c1.099,1.517,2.361,2.873,3.661,4.208c3.128-1.088,6.17-2.552,8.893-4.138c1.531,1.201,3.131,2.289,4.836,3.227
		c1.712,0.906,3.479,1.715,5.328,2.311c-0.064,3.216,0.168,6.362,0.648,9.589c1.774,0.504,3.607,0.692,5.422,0.959
		c1.745-2.846,3.192-5.848,4.342-8.791c1.938-0.043,3.876-0.134,5.787-0.477c1.902-0.322,3.809-0.767,5.614-1.442
		c1.922,2.53,4.066,4.953,6.417,7.151c1.699-0.724,3.305-1.651,4.883-2.605c-0.358-3.297-1.088-6.583-2.018-9.606
		c1.509-1.217,2.939-2.52,4.229-3.978c1.278-1.458,2.452-3.007,3.441-4.685c3.133,0.756,6.229,1.174,9.517,1.367
		c0.874-1.651,1.45-3.479,2.088-5.232c-2.503-2.321-5.03-4.31-7.805-6.004c0.378-1.914,0.521-3.843,0.579-5.784
		c-0.059-1.946-0.201-3.881-0.579-5.795c2.817-1.527,5.398-3.296,7.982-5.365c-0.518-1.807-1.22-3.576-1.979-5.286
		c-3.414-0.032-6.574,0.166-9.804,0.793c-0.992-1.667-2.163-3.232-3.441-4.69c-1.29-1.447-2.721-2.766-4.229-3.983
		c1.074-2.927,1.94-6.036,2.564-9.273c-1.595-0.917-3.146-1.935-4.846-2.659c-2.586,2.085-4.915,4.385-7.001,6.883
		c-1.806-0.691-3.712-1.121-5.614-1.442c-1.911-0.354-3.85-0.44-5.787-0.477c-0.983-2.964-2.217-5.934-3.712-8.861
		c-1.812,0.241-3.65,0.423-5.433,0.879C342.487,96.643,342.037,99.8,341.949,103.081L341.949,103.081z"/>
	<path fill="#FFFFFF" d="M293.188,25.354c3.768,0.638,7.354,2.509,9.823,5.361c2.49,2.809,3.868,6.411,3.9,10.093
		c-0.032,3.683-1.41,7.264-3.9,10.088c-2.468,2.852-6.055,4.717-9.823,5.355c-3.814,0.692-7.824-0.059-11.152-1.844
		c-3.377-1.78-5.985-4.819-7.301-8.233c-1.354-3.404-1.354-7.344,0-10.737c1.316-3.415,3.924-6.443,7.301-8.239
		C285.364,25.419,289.374,24.658,293.188,25.354L293.188,25.354z M274.558,22.653c-1.978-1.297-4.122-2.471-6.387-3.49
		c-0.965,1.04-1.98,2.005-2.814,3.157c1.096,2.251,2.41,4.374,3.908,6.314c-0.788,1.233-1.458,2.563-1.962,3.94
		c-0.552,1.351-0.933,2.793-1.18,4.229c-2.34,0.327-4.808,0.863-7.1,1.624c-0.1,1.421-0.15,2.836-0.027,4.256
		c2.294,0.97,4.744,1.667,7.126,2.123c0.247,1.437,0.627,2.868,1.18,4.224c0.503,1.383,1.174,2.712,1.962,3.94
		c-1.552,1.822-2.983,3.827-4.206,5.934c0.831,1.142,1.788,2.171,2.771,3.179c2.367-0.82,4.664-1.93,6.727-3.125
		c1.155,0.906,2.367,1.727,3.656,2.434c1.294,0.692,2.629,1.303,4.026,1.753c-0.046,2.429,0.131,4.809,0.49,7.248
		c1.343,0.386,2.731,0.525,4.101,0.729c1.321-2.155,2.415-4.428,3.286-6.647c1.466-0.032,2.932-0.102,4.374-0.365
		c1.439-0.241,2.884-0.579,4.248-1.093c1.456,1.919,3.077,3.747,4.852,5.409c1.289-0.547,2.503-1.244,3.696-1.962
		c-0.273-2.498-0.826-4.985-1.525-7.269c1.142-0.917,2.22-1.909,3.194-3.007c0.968-1.104,1.857-2.273,2.603-3.543
		c2.372,0.574,4.712,0.89,7.202,1.035c0.659-1.249,1.094-2.637,1.576-3.961c-1.89-1.753-3.807-3.254-5.902-4.54
		c0.287-1.447,0.395-2.9,0.438-4.369c-0.043-1.474-0.15-2.932-0.438-4.39c2.131-1.153,4.082-2.493,6.039-4.053
		c-0.395-1.372-0.925-2.702-1.498-3.999c-2.584-0.026-4.97,0.129-7.417,0.601c-0.75-1.26-1.635-2.444-2.603-3.549
		c-0.975-1.093-2.053-2.09-3.194-3.013c0.812-2.213,1.466-4.562,1.938-7.006c-1.206-0.697-2.38-1.463-3.664-2.016
		c-1.957,1.582-3.717,3.313-5.296,5.21c-1.364-0.531-2.809-0.852-4.248-1.093c-1.442-0.268-2.908-0.333-4.374-0.365
		c-0.742-2.241-1.675-4.487-2.809-6.701c-1.37,0.183-2.758,0.316-4.109,0.665c-0.549,2.492-0.89,4.883-0.959,7.36
		c-1.396,0.45-2.731,1.066-4.026,1.758C276.924,20.917,275.713,21.752,274.558,22.653L274.558,22.653z"/>
	<path fill="#FFFFFF" d="M470.912,247.142c-4.111,0.75-8.429-0.064-12.021-1.989c-3.637-1.919-6.448-5.194-7.863-8.872
		c-1.461-3.661-1.461-7.912,0-11.573c1.415-3.672,4.227-6.947,7.863-8.872c3.592-1.924,7.909-2.739,12.021-1.988
		c4.061,0.681,7.923,2.696,10.579,5.773c2.69,3.034,4.173,6.904,4.205,10.876c-0.032,3.972-1.515,7.831-4.205,10.871
		C478.835,244.446,474.973,246.456,470.912,247.142L470.912,247.142z M482.121,260.264c1.389-0.595,2.693-1.345,3.98-2.123
		c-0.293-2.686-0.888-5.366-1.646-7.826c1.233-0.992,2.399-2.059,3.45-3.243c1.04-1.19,1.996-2.455,2.803-3.816
		c2.555,0.616,5.077,0.954,7.757,1.109c0.713-1.346,1.182-2.83,1.702-4.262c-2.042-1.892-4.101-3.511-6.36-4.889
		c0.309-1.56,0.424-3.136,0.472-4.717c-0.048-1.587-0.163-3.163-0.472-4.723c2.294-1.249,4.398-2.691,6.502-4.374
		c-0.42-1.474-0.991-2.911-1.61-4.305c-2.782-0.032-5.358,0.134-7.99,0.644c-0.809-1.362-1.763-2.632-2.803-3.822
		c-1.051-1.179-2.217-2.257-3.45-3.248c0.877-2.386,1.584-4.921,2.094-7.553c-1.3-0.75-2.567-1.581-3.951-2.171
		c-2.106,1.705-4.007,3.576-5.703,5.612c-1.474-0.563-3.025-0.917-4.578-1.179c-1.557-0.284-3.136-0.354-4.714-0.386
		c-0.802-2.418-1.81-4.835-3.026-7.221c-1.477,0.198-2.973,0.343-4.428,0.718c-0.592,2.686-0.959,5.259-1.031,7.928
		c-1.507,0.482-2.948,1.147-4.342,1.892c-1.389,0.75-2.694,1.651-3.94,2.622c-2.131-1.399-4.438-2.659-6.886-3.747
		c-1.037,1.104-2.131,2.155-3.025,3.388c1.179,2.434,2.594,4.717,4.21,6.808c-0.852,1.33-1.573,2.755-2.114,4.24
		c-0.598,1.463-1.002,3.013-1.273,4.567c-2.52,0.349-5.178,0.922-7.646,1.748c-0.112,1.528-0.163,3.056-0.032,4.588
		c2.477,1.04,5.114,1.796,7.679,2.278c0.271,1.555,0.676,3.098,1.273,4.562c0.541,1.484,1.263,2.916,2.114,4.24
		c-1.672,1.967-3.216,4.127-4.532,6.395c0.898,1.233,1.925,2.343,2.983,3.431c2.549-0.89,5.028-2.08,7.25-3.372
		c1.246,0.976,2.552,1.865,3.94,2.626c1.394,0.74,2.835,1.399,4.342,1.881c-0.054,2.622,0.137,5.189,0.527,7.816
		c1.447,0.407,2.94,0.563,4.417,0.782c1.424-2.321,2.605-4.765,3.541-7.167c1.578-0.032,3.157-0.107,4.714-0.386
		c1.553-0.263,3.104-0.622,4.578-1.179C478.46,256.496,480.207,258.469,482.121,260.264L482.121,260.264z"/>
	<path fill="#FFFFFF" d="M431.778,277.466c0.839-2.182,2.507-4.122,4.664-5.264c2.128-1.137,4.688-1.619,7.124-1.174
		c2.406,0.402,4.698,1.598,6.271,3.42c1.595,1.801,2.474,4.095,2.492,6.449c-0.019,2.353-0.897,4.642-2.492,6.443
		c-1.573,1.822-3.865,3.018-6.271,3.42c-2.437,0.445-4.996-0.038-7.124-1.18c-2.157-1.136-3.825-3.077-4.664-5.258
		C430.913,282.156,430.913,279.631,431.778,277.466L431.778,277.466z M426.276,278.339c-1.493,0.209-3.069,0.547-4.532,1.035
		c-0.067,0.906-0.097,1.812-0.019,2.723c1.469,0.617,3.031,1.062,4.551,1.351c0.161,0.922,0.401,1.833,0.756,2.701
		c0.321,0.879,0.747,1.731,1.254,2.514c-0.991,1.168-1.908,2.45-2.688,3.79c0.534,0.734,1.143,1.388,1.77,2.037
		c1.512-0.53,2.98-1.232,4.299-1.999c0.737,0.579,1.512,1.104,2.335,1.554c0.825,0.44,1.68,0.831,2.572,1.115
		c-0.029,1.554,0.083,3.077,0.313,4.637c0.858,0.241,1.742,0.333,2.619,0.461c0.844-1.373,1.544-2.825,2.099-4.246
		c0.936-0.021,1.87-0.064,2.795-0.23c0.92-0.155,1.839-0.37,2.713-0.697c0.93,1.222,1.965,2.391,3.099,3.458
		c0.822-0.354,1.597-0.799,2.361-1.26c-0.175-1.592-0.528-3.184-0.977-4.642c0.729-0.584,1.421-1.217,2.045-1.919
		c0.617-0.708,1.183-1.458,1.662-2.262c1.515,0.364,3.008,0.563,4.597,0.654c0.424-0.793,0.702-1.678,1.011-2.525
		c-1.212-1.121-2.432-2.08-3.771-2.9c0.183-0.922,0.252-1.855,0.279-2.793c-0.027-0.943-0.097-1.876-0.279-2.798
		c1.359-0.745,2.608-1.597,3.854-2.594c-0.249-0.874-0.587-1.726-0.954-2.552c-1.651-0.021-3.176,0.081-4.736,0.381
		c-0.479-0.81-1.045-1.56-1.662-2.268c-0.624-0.697-1.315-1.335-2.045-1.924c0.518-1.415,0.938-2.916,1.241-4.476
		c-0.771-0.445-1.522-0.938-2.343-1.286c-1.248,1.007-2.374,2.117-3.382,3.323c-0.874-0.333-1.793-0.542-2.713-0.697
		c-0.925-0.167-1.859-0.209-2.795-0.231c-0.475-1.431-1.072-2.862-1.793-4.277c-0.877,0.118-1.764,0.204-2.624,0.423
		c-0.352,1.592-0.571,3.12-0.614,4.701c-0.893,0.284-1.747,0.681-2.572,1.121c-0.823,0.445-1.598,0.98-2.335,1.554
		c-1.265-0.831-2.632-1.576-4.082-2.219c-0.616,0.654-1.262,1.276-1.793,2.005c0.697,1.442,1.536,2.798,2.495,4.037
		c-0.507,0.788-0.933,1.635-1.254,2.514C426.678,276.501,426.438,277.417,426.276,278.339L426.276,278.339z"/>
	<path fill="#FFFFFF" d="M394.609,244.167c-2.951,3.548-7.169,5.918-11.637,6.711c-4.541,0.879-9.301-0.085-13.238-2.321
		c-3.999-2.241-7.115-6.031-8.644-10.303c-1.598-4.24-1.598-9.193,0-13.433c1.528-4.272,4.645-8.063,8.644-10.303
		c3.938-2.235,8.697-3.2,13.238-2.321c4.468,0.793,8.686,3.163,11.637,6.711c2.951,3.548,4.551,8.008,4.607,12.629
		C399.16,236.158,397.561,240.624,394.609,244.167L394.609,244.167z M399.598,190.054c-3.549,2.744-6.723,5.966-9.381,9.332
		c-1.568-0.487-3.165-0.949-4.789-1.2c-1.625-0.301-3.263-0.461-4.91-0.493c-1.132-4.192-2.707-8.089-4.726-12.083
		c-2.53,0.247-5.085,0.568-7.55,1.259c-0.955,4.391-1.322,8.877-1.19,13.182c-1.522,0.616-3.026,1.318-4.438,2.155
		c-1.439,0.815-2.79,1.753-4.087,2.777c-3.533-2.455-7.277-4.46-11.399-6.218c-1.771,1.833-3.481,3.731-4.953,5.821
		c2.069,3.951,4.747,7.682,7.542,10.855c-0.704,1.485-1.487,2.943-1.991,4.514c-0.633,1.527-0.951,3.152-1.38,4.744
		c-4.165,0.413-8.478,1.271-12.696,2.584c-0.193,2.541-0.266,5.087-0.054,7.627c4.128,1.694,8.579,2.836,12.75,3.469
		c0.429,1.592,0.747,3.216,1.38,4.744c0.504,1.571,1.287,3.029,1.991,4.519c-2.929,2.996-5.688,6.427-8.064,10.136
		c1.464,2.096,3.082,4.069,4.862,5.902c4.32-1.437,8.332-3.291,12.013-5.58c1.294,1.019,2.647,1.962,4.087,2.771
		c1.412,0.836,2.916,1.538,4.438,2.155c-0.324,4.192-0.257,8.652,0.332,12.956c2.464,0.724,4.993,1.099,7.526,1.431
		c2.388-3.967,4.259-7.842,5.607-12.029c1.647-0.032,3.285-0.193,4.91-0.493c1.624-0.252,3.221-0.708,4.786-1.201
		c2.444,3.409,5.368,6.797,8.585,9.713c2.343-1.04,4.535-2.358,6.679-3.741c-0.702-4.562-1.771-8.743-3.433-12.822
		c1.262-1.062,2.358-2.294,3.457-3.521c0.997-1.303,2.066-2.573,2.87-4.015c4.146,1.093,8.443,1.753,12.822,1.946
		c1.152-2.284,1.983-4.728,2.699-7.178c-3.383-3.034-6.99-5.564-10.85-7.612c0.321-1.619,0.281-3.281,0.394-4.921
		c-0.112-1.64-0.072-3.296-0.394-4.92c3.876-1.828,7.602-4.085,11.075-6.754c-0.588-2.487-1.525-4.894-2.541-7.231
		c-4.549-0.145-8.934,0.23-13.206,1.142c-0.804-1.442-1.873-2.707-2.87-4.015c-1.099-1.228-2.195-2.455-3.457-3.522
		c1.814-3.918,3.148-7.96,4.146-12.296C404.101,192.492,401.927,191.12,399.598,190.054L399.598,190.054z"/>
	<path fill="#FFFFFF" d="M445.659,451.915c-1.388,1.667-3.374,2.782-5.476,3.157c-2.136,0.413-4.377-0.043-6.229-1.094
		c-1.882-1.051-3.348-2.835-4.068-4.846c-0.751-1.994-0.751-4.325,0-6.319c0.721-2.011,2.187-3.796,4.068-4.852
		c1.852-1.051,4.093-1.501,6.229-1.088c2.102,0.37,4.088,1.484,5.476,3.157c1.389,1.667,2.142,3.769,2.166,5.939
		C447.801,448.146,447.048,450.248,445.659,451.915L445.659,451.915z M458.348,437.077c-2.139-0.069-4.203,0.107-6.213,0.536
		c-0.378-0.675-0.882-1.275-1.351-1.887c-0.518-0.579-1.034-1.158-1.627-1.656c0.853-1.844,1.482-3.747,1.951-5.789
		c-0.983-0.681-2.008-1.324-3.104-1.828c-1.67,1.292-3.163,2.809-4.415,4.391c-0.736-0.23-1.487-0.445-2.251-0.563
		c-0.764-0.145-1.536-0.22-2.311-0.23c-0.533-1.973-1.275-3.806-2.225-5.688c-1.189,0.118-2.391,0.269-3.551,0.595
		c-0.45,2.064-0.622,4.176-0.561,6.202c-0.716,0.29-1.423,0.617-2.088,1.014c-0.678,0.381-1.313,0.825-1.924,1.303
		c-1.662-1.153-3.423-2.097-5.363-2.922c-0.834,0.863-1.638,1.753-2.329,2.739c0.973,1.854,2.232,3.613,3.549,5.104
		c-0.333,0.702-0.702,1.388-0.938,2.128c-0.298,0.718-0.447,1.479-0.648,2.229c-1.962,0.193-3.991,0.596-5.975,1.217
		c-0.091,1.195-0.126,2.391-0.026,3.586c1.943,0.799,4.039,1.335,6.001,1.636c0.201,0.745,0.351,1.511,0.648,2.229
		c0.236,0.74,0.605,1.426,0.938,2.128c-1.381,1.41-2.678,3.023-3.796,4.771c0.689,0.981,1.45,1.914,2.286,2.777
		c2.035-0.681,3.922-1.549,5.653-2.627c0.608,0.478,1.246,0.922,1.924,1.303c0.665,0.392,1.372,0.724,2.088,1.014
		c-0.152,1.973-0.12,4.073,0.155,6.094c1.161,0.344,2.351,0.521,3.541,0.676c1.126-1.865,2.005-3.688,2.64-5.66
		c0.774-0.017,1.547-0.092,2.311-0.23c0.764-0.118,1.515-0.333,2.251-0.568c1.15,1.607,2.525,3.2,4.039,4.572
		c1.102-0.488,2.134-1.109,3.145-1.758c-0.332-2.15-0.834-4.117-1.616-6.036c0.593-0.499,1.109-1.077,1.627-1.656
		c0.469-0.611,0.973-1.212,1.351-1.887c1.951,0.515,3.973,0.819,6.033,0.911c0.541-1.072,0.933-2.225,1.268-3.377
		c-1.589-1.426-3.288-2.616-5.103-3.581c0.149-0.761,0.131-1.544,0.185-2.315c-0.054-0.772-0.035-1.55-0.185-2.316
		c1.822-0.857,3.575-1.919,5.21-3.173C459.267,439.308,458.824,438.177,458.348,437.077L458.348,437.077z"/>
	<path fill="#FFFFFF" d="M505.176,377.067c-0.999,1.93-2.618,3.468-4.609,4.332c-1.991,0.863-4.268,0.965-6.313,0.354
		c-2.093-0.59-3.886-2.011-5.068-3.779c-1.205-1.785-1.712-4.042-1.449-6.159c0.228-2.117,1.278-4.203,2.846-5.645
		c1.547-1.469,3.662-2.401,5.816-2.498c2.125-0.107,4.331,0.504,6.052,1.833c1.71,1.276,2.98,3.168,3.469,5.285
		C506.406,372.902,506.133,375.116,505.176,377.067L505.176,377.067z M506.449,360.14c-0.616-0.478-1.271-0.89-1.959-1.249
		c0.412-2,0.576-3.972,0.576-6.079c-1.115-0.429-2.257-0.836-3.438-1.066c-1.332,1.64-2.437,3.447-3.294,5.285
		c-0.77-0.064-1.547-0.091-2.321-0.037c-0.774,0.037-1.544,0.145-2.303,0.294c-0.965-1.774-2.114-3.409-3.474-5.022
		c-1.133,0.396-2.251,0.831-3.313,1.399c0.032,2.096,0.364,4.229,0.868,6.154c-0.61,0.477-1.251,0.922-1.796,1.479
		c-0.586,0.504-1.063,1.12-1.581,1.699c-1.839-0.713-3.832-1.265-5.883-1.603c-0.619,1.024-1.19,2.075-1.638,3.189
		c1.375,1.587,3.005,3.007,4.621,4.16c-0.156,0.756-0.367,1.506-0.424,2.283c-0.123,0.767-0.102,1.544-0.123,2.321
		c-1.865,0.638-3.75,1.495-5.535,2.551c0.172,1.185,0.432,2.364,0.791,3.511c2.123,0.306,4.197,0.381,6.229,0.198
		c0.33,0.702,0.697,1.383,1.131,2.032c0.419,0.648,0.901,1.26,1.41,1.844c-1.023,1.689-1.943,3.581-2.605,5.511
		c0.882,0.831,1.863,1.522,2.857,2.198c1.844-1.158,3.449-2.391,4.904-3.865c0.7,0.332,1.424,0.616,2.169,0.831
		c0.734,0.241,1.501,0.386,2.265,0.509c0.303,1.951,0.814,3.994,1.547,5.902c1.203,0.059,2.406-0.032,3.6-0.155
		c0.672-2.069,1.109-4.053,1.275-6.116c0.753-0.177,1.474-0.461,2.197-0.745c0.694-0.338,1.416-0.644,2.057-1.078
		c1.511,1.335,3.178,2.52,4.977,3.527c0.641-0.472,1.192-1.062,1.764-1.625v-2.481c-0.63-1.319-1.228-2.665-2.056-3.833
		c0.478-0.611,0.812-1.318,1.209-1.983c0.289-0.691,0.632-1.356,0.847-2.074v-10.099c-0.094-0.29-0.155-0.59-0.276-0.863
		c0.103-0.081,0.177-0.193,0.276-0.273v-6.492c-1.316,0.38-2.603,0.82-3.793,1.373C507.652,361.115,507.079,360.584,506.449,360.14
		L506.449,360.14z"/>
	<path fill="#FFFFFF" d="M329.105,368.432c-0.764,1.474-2,2.648-3.521,3.307c-1.521,0.659-3.257,0.734-4.819,0.268
		c-1.598-0.45-2.967-1.533-3.87-2.884c-0.92-1.367-1.309-3.087-1.107-4.707c0.175-1.613,0.976-3.206,2.174-4.31
		c1.182-1.121,2.796-1.833,4.441-1.903c1.624-0.085,3.307,0.381,4.62,1.399c1.306,0.97,2.276,2.417,2.648,4.036
		C330.043,365.248,329.834,366.942,329.105,368.432L329.105,368.432z M334.337,369.091c1.536,0.038,3.099-0.081,4.643-0.375
		c0.217-0.895,0.303-1.817,0.356-2.728c-1.435-0.788-2.9-1.378-4.42-1.774c-0.024-0.59-0.163-1.174-0.271-1.753
		c-0.155-0.568-0.309-1.142-0.542-1.683c1.215-0.965,2.297-2.048,3.321-3.281c-0.437-0.798-0.914-1.592-1.487-2.31
		c-1.582,0.306-3.123,0.825-4.52,1.474c-0.423-0.413-0.86-0.815-1.343-1.158c-0.469-0.365-0.97-0.676-1.495-0.949
		c0.316-1.527,0.439-3.034,0.439-4.642c-0.85-0.327-1.724-0.638-2.624-0.814c-1.019,1.249-1.86,2.632-2.517,4.036
		c-0.587-0.053-1.18-0.07-1.771-0.032c-0.593,0.032-1.18,0.113-1.758,0.225c-0.737-1.356-1.614-2.6-2.651-3.833
		c-0.865,0.3-1.721,0.632-2.53,1.067c0.024,1.603,0.279,3.232,0.662,4.701c-0.466,0.364-0.954,0.702-1.369,1.125
		c-0.45,0.386-0.813,0.858-1.209,1.297c-1.404-0.542-2.927-0.965-4.492-1.223c-0.472,0.783-0.908,1.587-1.249,2.434
		c1.048,1.211,2.294,2.299,3.527,3.179c-0.118,0.579-0.281,1.147-0.324,1.742c-0.094,0.584-0.078,1.18-0.094,1.774
		c-1.423,0.488-2.862,1.142-4.224,1.946c0.128,0.906,0.33,1.806,0.603,2.68c1.621,0.236,3.205,0.295,4.755,0.156
		c0.252,0.536,0.533,1.056,0.865,1.549c0.319,0.493,0.687,0.959,1.075,1.41c-0.783,1.287-1.482,2.734-1.989,4.208
		c0.673,0.633,1.424,1.158,2.182,1.678c1.407-0.885,2.635-1.828,3.744-2.954c0.534,0.252,1.089,0.472,1.657,0.632
		c0.56,0.188,1.144,0.295,1.729,0.391c0.23,1.49,0.622,3.05,1.182,4.508c0.917,0.043,1.836-0.027,2.747-0.118
		c0.515-1.582,0.848-3.099,0.976-4.674c0.574-0.134,1.123-0.349,1.678-0.568c0.528-0.257,1.081-0.488,1.568-0.82
		c1.155,1.018,2.429,1.924,3.801,2.69c0.737-0.541,1.398-1.195,2.026-1.865c-0.593-1.517-1.346-2.916-2.249-4.197
		c0.364-0.466,0.619-1.008,0.922-1.512C333.897,370.185,334.176,369.665,334.337,369.091L334.337,369.091z"/>
	<path fill="#FFFFFF" d="M354.715,30.785c3.128-0.167,6.124-0.482,9.137-1.035c0.914,1.474,1.731,3.012,2.814,4.363
		c1.002,1.42,2.099,2.755,3.299,4.004c-1.452,2.701-2.741,5.51-3.822,8.383c3.088,3.007,6.674,5.446,10.399,7.596
		c2.423-1.946,4.72-4.063,6.818-6.239c1.539,0.809,3.211,1.313,4.833,1.924c1.65,0.52,3.345,0.938,5.036,1.308
		c0.423,2.98,1.042,5.988,1.857,9.011c4.27,0.536,8.576,0.536,12.843,0c0.818-3.023,1.438-6.031,1.86-9.011
		c1.691-0.37,3.383-0.788,5.034-1.308c1.624-0.611,3.293-1.115,4.835-1.924c2.099,2.176,4.393,4.293,6.818,6.239
		c3.726-2.149,7.312-4.594,10.399-7.596c-1.08-2.873-2.37-5.682-3.825-8.383c1.201-1.249,2.297-2.584,3.3-4.004
		c1.082-1.351,1.902-2.889,2.813-4.363c3.016,0.552,6.012,0.868,9.137,1.035c1.882-3.887,3.163-8.057,4.007-12.281
		c-2.632-1.704-5.314-3.221-8.026-4.54c0.235-1.715,0.235-3.447,0.332-5.173c-0.097-1.721-0.097-3.458-0.332-5.173
		c2.165-1.051,4.288-2.321,6.405-3.618h-28.26c1.157,2.771,1.816,5.752,1.859,8.791c-0.066,4.803-1.506,9.515-4.371,13.364
		c-2.747,3.929-6.891,6.781-11.369,8.292c-4.511,1.469-9.566,1.469-14.076,0c-4.477-1.512-8.62-4.363-11.37-8.292
		c-2.865-3.849-4.304-8.561-4.371-13.364c0.043-3.039,0.702-6.02,1.86-8.791h-28.258c2.114,1.297,4.24,2.567,6.405,3.618
		c-0.235,1.715-0.238,3.452-0.335,5.173c0.097,1.726,0.1,3.458,0.335,5.173c-2.715,1.319-5.397,2.836-8.029,4.54
		C351.555,22.728,352.833,26.898,354.715,30.785L354.715,30.785z"/>
	<path fill="#FFFFFF" d="M395.173,28.287c4.052,1.313,8.622,1.313,12.672,0c4.021-1.367,7.762-3.929,10.232-7.467
		c2.584-3.474,3.868-7.698,3.938-12.029c-0.048-3.061-0.739-6.063-2.037-8.791h-5.88c1.841,2.573,2.741,5.607,2.816,8.791
		c-0.077,3.281-1.008,6.411-2.961,9.027c-1.845,2.68-4.693,4.583-7.682,5.618c-3.021,0.981-6.505,0.981-9.523,0
		c-2.99-1.034-5.837-2.938-7.684-5.618c-1.954-2.616-2.882-5.746-2.959-9.027c0.075-3.184,0.973-6.218,2.814-8.791h-5.881
		c-1.295,2.729-1.986,5.73-2.037,8.791c0.072,4.331,1.354,8.555,3.938,12.029C387.41,24.358,391.154,26.92,395.173,28.287
		L395.173,28.287z"/>
	<path fill="#FFFFFF" d="M330.687,299.695c-0.469,3.517-1.94,6.845-4.379,9.418c-2.359,2.637-5.65,4.369-9.067,5.087
		c-3.438,0.681-7.148,0.236-10.33-1.233c-3.149-1.506-5.942-3.961-7.615-7.081c-1.766-3.077-2.407-6.658-2.037-10.19
		c0.472-3.516,1.938-6.845,4.379-9.418c2.361-2.643,5.652-4.374,9.069-5.092c3.437-0.675,7.146-0.23,10.33,1.233
		c3.149,1.506,5.942,3.961,7.611,7.086C330.416,292.582,331.06,296.163,330.687,299.695L330.687,299.695z M345.811,297.647
		c2.107-0.729,4.206-1.603,6.288-2.626c-0.249-3.173-0.825-6.341-1.865-9.359c-2.305-0.156-4.532-0.188-6.794-0.043
		c-0.539-1.158-1.006-2.359-1.684-3.447c-0.608-1.131-1.297-2.203-2.066-3.227c1.303-1.854,2.495-3.801,3.541-5.821
		c-2.003-2.471-4.42-4.578-6.967-6.486c-1.951,1.222-3.821,2.573-5.548,3.983c-1.062-0.729-2.24-1.238-3.38-1.828
		c-1.165-0.531-2.369-0.986-3.578-1.404c-0.048-2.219-0.24-4.487-0.573-6.775c-3.085-0.767-6.245-1.147-9.424-1.126
		c-0.868,2.15-1.584,4.305-2.151,6.449c-1.276,0.123-2.558,0.284-3.812,0.52c-1.247,0.305-2.514,0.525-3.715,0.981
		c-1.351-1.774-2.849-3.533-4.455-5.173c-2.924,1.254-5.768,2.729-8.298,4.658c0.542,2.208,1.241,4.379,2.069,6.497
		c-0.989,0.809-1.911,1.693-2.771,2.647c-0.912,0.896-1.648,1.952-2.447,2.948c-2.16-0.665-4.331-1.163-6.612-1.56
		c-1.721,2.691-3.026,5.639-4.015,8.662c1.78,1.479,3.616,2.825,5.492,4.026c-0.324,1.244-0.477,2.514-0.699,3.774
		c-0.081,1.271-0.23,2.541-0.209,3.822c-2.106,0.729-4.208,1.603-6.288,2.626c0.249,3.174,0.823,6.347,1.863,9.359
		c2.31,0.156,4.538,0.188,6.794,0.048c0.541,1.158,1.008,2.359,1.683,3.441c0.611,1.136,1.297,2.208,2.069,3.232
		c-1.302,1.854-2.495,3.8-3.541,5.816c2.002,2.471,4.42,4.583,6.966,6.486c1.948-1.217,3.816-2.568,5.548-3.983
		c1.059,0.729,2.24,1.244,3.377,1.833c1.166,0.53,2.372,0.98,3.583,1.399c0.048,2.225,0.239,4.492,0.571,6.781
		c3.085,0.761,6.245,1.142,9.424,1.126c0.863-2.15,1.584-4.305,2.154-6.454c1.273-0.124,2.549-0.279,3.807-0.515
		c1.246-0.306,2.514-0.531,3.717-0.986c1.349,1.78,2.847,3.532,4.455,5.173c2.921-1.249,5.768-2.729,8.298-4.658
		c-0.542-2.203-1.241-4.374-2.072-6.492c0.992-0.809,1.911-1.694,2.771-2.648c0.914-0.895,1.651-1.951,2.447-2.954
		c2.165,0.67,4.337,1.164,6.614,1.56c1.721-2.686,3.026-5.634,4.016-8.663c-1.783-1.479-3.616-2.825-5.492-4.026
		c0.324-1.243,0.478-2.514,0.699-3.768C345.683,300.199,345.832,298.929,345.811,297.647L345.811,297.647z"/>
	<path fill="#FFFFFF" d="M322.311,305.41c-1.584,1.801-3.843,2.948-6.127,3.447c-2.302,0.456-4.858,0.15-6.986-0.836
		c-2.104-1.018-4.023-2.669-5.146-4.792c-1.204-2.096-1.611-4.471-1.378-6.883c0.343-2.396,1.297-4.61,2.959-6.363
		c1.595-1.807,3.847-2.959,6.133-3.447c2.3-0.456,4.859-0.15,6.987,0.836c2.102,1.013,4.025,2.664,5.143,4.792
		c1.204,2.096,1.611,4.471,1.384,6.883C324.933,301.443,323.976,303.657,322.311,305.41L322.311,305.41z M320.33,283.952
		c-2.854-1.324-6.207-1.727-9.297-1.115c-3.066,0.644-6.036,2.203-8.162,4.583c-2.201,2.321-3.511,5.307-3.943,8.48
		c-0.327,3.184,0.241,6.39,1.833,9.166c1.503,2.809,4.026,5.023,6.853,6.374c2.86,1.319,6.213,1.721,9.298,1.115
		c3.071-0.649,6.038-2.208,8.161-4.583c2.203-2.321,3.514-5.307,3.945-8.48c0.33-3.184-0.244-6.39-1.836-9.167
		C325.683,287.511,323.163,285.297,320.33,283.952L320.33,283.952z"/>
	<path fill="#FFFFFF" d="M146.034,105.257c0.045-1.865,0.453-3.548,1.542-5.06l0.104,0.075c0.967-1.555,2.597-2.616,4.21-3.249
		l-0.014-0.043c1.515-0.407,3.308-0.407,4.795,0.043l-0.04,0.118c1.613,0.547,3.302,1.533,4.355,3.055l-0.105,0.075
		c1.142,1.437,1.644,3.087,1.774,4.985h-0.128c-0.045,1.855-0.453,3.538-1.541,5.05l-0.105-0.075
		c-0.967,1.555-2.597,2.616-4.21,3.249l0.014,0.043c-1.514,0.407-3.308,0.407-4.795-0.043l0.038-0.118
		c-1.611-0.547-3.3-1.533-4.353-3.056l0.104-0.075c-1.142-1.437-1.643-3.087-1.774-4.975H146.034L146.034,105.257z M138.861,58.675
		l0.021,0.064c-1.723,0.622-3.465,1.201-5.095,2.048c-3.27-2.97-6.907-5.714-10.804-8.062c-2.774,1.608-5.323,3.548-7.807,5.542
		c0.769,4.782,1.852,9.199,3.527,13.487c-1.361,1.479-2.605,3.056-3.728,4.717l-0.104-0.075c-1.249,1.576-2.208,3.356-3.259,5.071
		c-4.376-0.482-8.85-0.525-13.495-0.193c-1.174,2.991-2.297,6.004-3.016,9.134c3.275,3.398,7.004,6.368,10.748,8.845
		c-0.241,1.994-0.201,3.999-0.263,6.003h-0.129c0.104,1.994,0.107,3.999,0.392,5.993c-3.761,2.176-7.601,4.792-11.016,7.772
		c0.705,3.131,1.683,6.186,2.878,9.177c4.704,0.793,9.413,1.051,13.899,0.836c1.088,1.694,2.08,3.452,3.364,4.996l-0.104,0.075
		c1.163,1.64,2.441,3.184,3.833,4.642c-1.865,4.063-3.256,8.266-4.355,12.758c2.409,2.08,4.961,4.031,7.689,5.693
		c4.267-2.102,8.196-4.621,11.75-7.483c1.809,0.89,3.752,1.458,5.649,2.112l-0.04,0.129c1.919,0.59,3.881,1.094,5.849,1.501
		c0.911,4.245,2.243,8.651,4.001,12.865c3.179,0.246,6.36,0.321,9.539,0.075c2.203-4.138,3.902-8.663,5.106-12.94
		c1.959-0.45,3.908-0.986,5.808-1.63l-0.021-0.064c1.723-0.622,3.465-1.201,5.095-2.048c3.27,2.97,6.907,5.714,10.804,8.062
		c2.774-1.608,5.323-3.548,7.807-5.542c-0.769-4.782-1.852-9.188-3.527-13.487c1.361-1.479,2.605-3.056,3.728-4.717l0.104,0.075
		c1.249-1.576,2.208-3.356,3.259-5.071c4.376,0.482,8.85,0.525,13.495,0.193c1.174-2.98,2.297-6.004,3.016-9.134
		c-3.275-3.398-7.003-6.368-10.748-8.845c0.241-1.994,0.201-3.999,0.263-5.993h0.129c-0.104-2.004-0.107-4.009-0.392-6.003
		c3.761-2.176,7.602-4.792,11.016-7.762c-0.705-3.141-1.683-6.197-2.878-9.177c-4.704-0.804-9.413-1.062-13.899-0.847
		c-1.088-1.694-2.08-3.452-3.364-4.996l0.104-0.075c-1.163-1.64-2.441-3.184-3.833-4.642c1.865-4.063,3.256-8.255,4.355-12.758
		c-2.409-2.08-4.961-4.031-7.689-5.693c-4.267,2.102-8.196,4.621-11.75,7.483c-1.809-0.89-3.752-1.458-5.649-2.112l0.04-0.118
		c-1.919-0.6-3.881-1.104-5.848-1.512c-0.912-4.246-2.244-8.652-4.001-12.865c-3.179-0.247-6.36-0.322-9.539-0.064
		c-2.203,4.127-3.902,8.652-5.106,12.929C142.71,57.496,140.762,58.032,138.861,58.675L138.861,58.675z"/>
	<path fill="#FFFFFF" d="M230.101,2.144c-0.078-0.718-0.228-1.431-0.348-2.144h-7.457c1.217,1.469,2.425,2.948,3.825,4.267
		C227.509,3.667,228.814,2.916,230.101,2.144L230.101,2.144z"/>
	<path fill="#FFFFFF" d="M208.062,7.162c1.423-2.316,2.605-4.76,3.541-7.162h-8.451c0.029,2.128,0.174,4.235,0.493,6.379
		C205.092,6.786,206.585,6.947,208.062,7.162L208.062,7.162z"/>
	<path fill="#FFFFFF" d="M175.779,21.463c0.839-2.176,2.506-4.117,4.664-5.264c2.128-1.137,4.688-1.619,7.124-1.168
		c2.407,0.396,4.698,1.597,6.271,3.42c1.595,1.801,2.474,4.095,2.493,6.443c-0.019,2.359-0.898,4.643-2.493,6.443
		c-1.573,1.823-3.865,3.023-6.271,3.42c-2.437,0.45-4.996-0.032-7.124-1.179c-2.158-1.136-3.825-3.077-4.664-5.253
		C174.913,26.159,174.913,23.629,175.779,21.463L175.779,21.463z M171.032,30.147c0.321,0.879,0.748,1.737,1.254,2.52
		c-0.991,1.168-1.908,2.444-2.688,3.784c0.533,0.74,1.142,1.394,1.769,2.037c1.512-0.525,2.98-1.233,4.299-1.994
		c0.737,0.579,1.512,1.104,2.334,1.555c0.826,0.439,1.681,0.826,2.573,1.115c-0.03,1.555,0.083,3.077,0.313,4.631
		c0.858,0.247,1.742,0.333,2.619,0.461c0.844-1.373,1.544-2.82,2.099-4.246c0.936-0.021,1.871-0.064,2.795-0.225
		c0.919-0.161,1.838-0.375,2.712-0.697c0.93,1.223,1.964,2.391,3.098,3.452c0.823-0.354,1.597-0.793,2.361-1.254
		c-0.174-1.598-0.528-3.185-0.976-4.643c0.729-0.589,1.42-1.222,2.045-1.919c0.617-0.708,1.182-1.458,1.662-2.262
		c1.515,0.364,3.007,0.557,4.597,0.654c0.423-0.793,0.702-1.683,1.011-2.53c-1.212-1.115-2.431-2.08-3.771-2.895
		c0.183-0.922,0.252-1.855,0.279-2.798c-0.027-0.943-0.096-1.876-0.279-2.798c1.359-0.74,2.608-1.598,3.854-2.595
		c-0.25-0.868-0.587-1.726-0.954-2.551c-1.651-0.021-3.176,0.085-4.736,0.386c-0.479-0.815-1.045-1.565-1.662-2.273
		c-0.625-0.696-1.316-1.329-2.045-1.919c0.517-1.415,0.938-2.916,1.241-4.481c-0.771-0.44-1.522-0.933-2.342-1.287
		c-1.249,1.008-2.375,2.123-3.382,3.323c-0.874-0.332-1.793-0.536-2.712-0.697c-0.925-0.161-1.86-0.204-2.795-0.225
		c-0.475-1.437-1.072-2.862-1.793-4.277c-0.877,0.118-1.764,0.204-2.624,0.418c-0.351,1.597-0.571,3.12-0.614,4.707
		c-0.893,0.279-1.748,0.675-2.573,1.115c-0.823,0.45-1.597,0.986-2.334,1.555c-1.265-0.826-2.632-1.576-4.082-2.219
		c-0.616,0.654-1.262,1.276-1.793,2.005c0.697,1.447,1.536,2.798,2.495,4.042c-0.506,0.783-0.933,1.63-1.254,2.509
		c-0.354,0.868-0.595,1.791-0.756,2.712c-1.493,0.204-3.069,0.547-4.532,1.029c-0.067,0.911-0.097,1.812-0.019,2.723
		c1.469,0.622,3.032,1.061,4.551,1.351C170.437,28.367,170.678,29.278,171.032,30.147L171.032,30.147z"/>
	<path fill="#FFFFFF" d="M102.526,2.102c1.294,1.018,2.648,1.962,4.087,2.766c1.413,0.836,2.916,1.544,4.438,2.155
		c-0.324,4.191-0.257,8.651,0.332,12.961c2.463,0.719,4.994,1.094,7.526,1.426c2.388-3.967,4.259-7.837,5.607-12.029
		c1.648-0.032,3.286-0.193,4.91-0.493c1.624-0.247,3.222-0.708,4.787-1.201c2.444,3.409,5.369,6.797,8.585,9.713
		c2.342-1.04,4.535-2.358,6.679-3.742c-0.703-4.556-1.772-8.737-3.434-12.822c0.3-0.251,0.539-0.568,0.823-0.836h-59.94
		c-0.416,0.601-0.879,1.163-1.276,1.78c1.463,2.09,3.082,4.063,4.862,5.896C94.834,6.239,98.846,4.385,102.526,2.102L102.526,2.102z
		"/>
	<path fill="#FFFFFF" d="M189.66,195.913c-1.389,1.672-3.375,2.787-5.476,3.163c-2.136,0.407-4.376-0.043-6.229-1.094
		c-1.882-1.051-3.348-2.841-4.068-4.846c-0.751-1.994-0.751-4.331,0-6.325c0.721-2.005,2.187-3.795,4.068-4.846
		c1.852-1.051,4.093-1.501,6.229-1.094c2.102,0.375,4.087,1.49,5.476,3.163c1.388,1.662,2.141,3.763,2.166,5.939
		C191.801,192.149,191.048,194.251,189.66,195.913L189.66,195.913z M202.348,181.075c-2.139-0.064-4.203,0.107-6.213,0.536
		c-0.378-0.675-0.882-1.276-1.351-1.887c-0.518-0.579-1.035-1.158-1.627-1.651c0.853-1.844,1.482-3.752,1.951-5.79
		c-0.983-0.686-2.007-1.33-3.104-1.833c-1.67,1.297-3.163,2.809-4.415,4.396c-0.737-0.235-1.487-0.45-2.251-0.568
		c-0.764-0.139-1.536-0.214-2.31-0.225c-0.534-1.973-1.276-3.806-2.225-5.693c-1.19,0.118-2.391,0.268-3.551,0.601
		c-0.45,2.058-0.622,4.17-0.561,6.196c-0.715,0.29-1.423,0.622-2.088,1.019c-0.678,0.375-1.313,0.826-1.924,1.297
		c-1.662-1.147-3.423-2.091-5.363-2.916c-0.833,0.857-1.638,1.748-2.329,2.734c0.973,1.854,2.232,3.613,3.548,5.103
		c-0.332,0.708-0.702,1.394-0.938,2.133c-0.297,0.718-0.447,1.479-0.648,2.23c-1.962,0.193-3.991,0.59-5.974,1.211
		c-0.091,1.201-0.126,2.391-0.027,3.591c1.943,0.793,4.039,1.33,6.001,1.63c0.201,0.75,0.351,1.512,0.648,2.23
		c0.236,0.74,0.606,1.426,0.938,2.133c-1.38,1.404-2.677,3.023-3.795,4.771c0.689,0.976,1.45,1.909,2.286,2.777
		c2.034-0.686,3.921-1.554,5.653-2.626c0.608,0.472,1.246,0.922,1.924,1.297c0.665,0.397,1.373,0.729,2.088,1.019
		c-0.152,1.973-0.12,4.074,0.156,6.09c1.161,0.343,2.351,0.525,3.541,0.675c1.126-1.866,2.005-3.688,2.64-5.661
		c0.774-0.011,1.546-0.086,2.31-0.225c0.764-0.118,1.515-0.333,2.251-0.568c1.15,1.608,2.525,3.195,4.039,4.567
		c1.102-0.482,2.133-1.104,3.144-1.758c-0.333-2.145-0.833-4.117-1.616-6.036c0.592-0.493,1.109-1.072,1.627-1.651
		c0.469-0.611,0.973-1.211,1.351-1.887c1.951,0.515,3.972,0.815,6.033,0.911c0.542-1.072,0.933-2.23,1.268-3.377
		c-1.589-1.426-3.288-2.616-5.103-3.581c0.15-0.762,0.131-1.544,0.185-2.316c-0.054-0.772-0.035-1.555-0.185-2.316
		c1.823-0.857,3.576-1.919,5.21-3.173C203.267,183.305,202.825,182.179,202.348,181.075L202.348,181.075z"/>
	<path fill="#FFFFFF" d="M234.583,110.167c1.546-1.469,3.661-2.401,5.816-2.498c2.125-0.107,4.331,0.504,6.052,1.833
		c1.71,1.276,2.98,3.173,3.468,5.286c0.488,2.112,0.214,4.331-0.742,6.282c-1,1.93-2.619,3.463-4.61,4.331
		c-1.992,0.858-4.267,0.965-6.312,0.354c-2.093-0.59-3.886-2.016-5.068-3.785c-1.206-1.779-1.712-4.042-1.45-6.153
		C231.964,113.694,233.015,111.614,234.583,110.167L234.583,110.167z M224.969,117.35c-1.866,0.633-3.75,1.49-5.535,2.552
		c0.171,1.179,0.431,2.358,0.791,3.505c2.123,0.311,4.197,0.386,6.229,0.204c0.33,0.697,0.697,1.383,1.131,2.026
		c0.418,0.654,0.9,1.265,1.41,1.844c-1.024,1.694-1.943,3.581-2.605,5.511c0.882,0.836,1.863,1.522,2.857,2.197
		c1.844-1.158,3.449-2.391,4.905-3.859c0.7,0.333,1.423,0.611,2.168,0.826c0.734,0.247,1.501,0.386,2.265,0.515
		c0.303,1.951,0.815,3.988,1.546,5.896c1.204,0.064,2.407-0.032,3.6-0.15c0.673-2.069,1.11-4.052,1.276-6.122
		c0.753-0.171,1.474-0.461,2.198-0.74c0.694-0.343,1.415-0.643,2.056-1.083c1.512,1.34,3.179,2.52,4.977,3.527
		c0.965-0.708,1.833-1.565,2.653-2.444c-0.777-1.983-1.761-3.816-2.945-5.489c0.477-0.611,0.812-1.319,1.209-1.983
		c0.3-0.718,0.665-1.404,0.876-2.155c2.013,0.054,4.058-0.096,6.082-0.482c0.282-1.179,0.397-2.38,0.466-3.581
		c-1.879-1.029-3.8-1.801-5.789-2.316c-0.032-0.771-0.214-1.543-0.356-2.294c-0.201-0.75-0.402-1.501-0.708-2.208
		c1.592-1.265,3.01-2.68,4.35-4.299c-0.574-1.05-1.198-2.08-1.949-3.023c-2.072,0.396-4.09,1.083-5.918,1.93
		c-0.555-0.536-1.128-1.072-1.758-1.512c-0.616-0.482-1.271-0.89-1.959-1.254c0.413-1.994,0.576-3.967,0.576-6.079
		c-1.115-0.429-2.257-0.836-3.439-1.062c-1.332,1.641-2.436,3.441-3.294,5.286c-0.769-0.064-1.546-0.097-2.321-0.043
		c-0.774,0.043-1.544,0.15-2.302,0.3c-0.965-1.78-2.115-3.409-3.474-5.028c-1.134,0.397-2.251,0.836-3.313,1.405
		c0.032,2.09,0.365,4.224,0.869,6.153c-0.611,0.472-1.251,0.922-1.796,1.479c-0.587,0.504-1.064,1.115-1.582,1.694
		c-1.838-0.708-3.833-1.265-5.883-1.598c-0.619,1.019-1.19,2.069-1.638,3.184c1.375,1.586,3.005,3.013,4.621,4.16
		c-0.156,0.761-0.367,1.512-0.424,2.284C224.969,115.796,224.99,116.567,224.969,117.35L224.969,117.35z"/>
	<path fill="#FFFFFF" d="M61.961,104.11c1.182-1.125,2.795-1.833,4.441-1.908c1.624-0.085,3.307,0.386,4.621,1.404
		c1.305,0.965,2.275,2.413,2.648,4.031c0.373,1.608,0.164,3.302-0.565,4.792c-0.764,1.479-2,2.648-3.522,3.313
		c-1.52,0.654-3.256,0.729-4.819,0.268c-1.598-0.451-2.967-1.533-3.87-2.884c-0.919-1.372-1.308-3.087-1.107-4.706
		C59.962,106.801,60.763,105.214,61.961,104.11L61.961,104.11z M54.62,109.588c-1.423,0.493-2.863,1.147-4.224,1.951
		c0.128,0.9,0.33,1.801,0.603,2.68c1.622,0.236,3.206,0.29,4.755,0.15c0.252,0.536,0.533,1.061,0.865,1.554
		c0.319,0.493,0.687,0.954,1.075,1.404c-0.783,1.287-1.482,2.734-1.989,4.213c0.672,0.633,1.423,1.158,2.182,1.672
		c1.407-0.879,2.634-1.822,3.744-2.948c0.534,0.247,1.088,0.472,1.656,0.633c0.56,0.182,1.145,0.29,1.729,0.386
		c0.23,1.49,0.622,3.056,1.182,4.514c0.917,0.042,1.836-0.032,2.748-0.118c0.514-1.586,0.847-3.098,0.976-4.674
		c0.574-0.139,1.123-0.354,1.678-0.568c0.528-0.257,1.08-0.493,1.568-0.825c1.155,1.019,2.428,1.93,3.801,2.691
		c0.737-0.536,1.399-1.19,2.026-1.866c-0.592-1.511-1.345-2.916-2.249-4.191c0.364-0.472,0.619-1.008,0.922-1.512
		c0.23-0.547,0.509-1.072,0.67-1.641c1.536,0.032,3.099-0.085,4.643-0.375c0.217-0.9,0.303-1.822,0.356-2.734
		c-1.434-0.783-2.9-1.372-4.42-1.769c-0.024-0.589-0.164-1.179-0.271-1.758c-0.156-0.568-0.309-1.137-0.542-1.684
		c1.214-0.965,2.297-2.047,3.321-3.28c-0.437-0.793-0.914-1.587-1.488-2.305c-1.581,0.3-3.123,0.826-4.519,1.469
		c-0.423-0.407-0.86-0.814-1.343-1.158c-0.469-0.364-0.97-0.675-1.496-0.943c0.316-1.533,0.439-3.034,0.439-4.642
		c-0.85-0.333-1.723-0.643-2.624-0.815c-1.019,1.244-1.86,2.627-2.517,4.031c-0.587-0.054-1.179-0.064-1.771-0.032
		s-1.18,0.118-1.758,0.225c-0.737-1.351-1.614-2.594-2.651-3.828c-0.866,0.3-1.721,0.633-2.53,1.062
		c0.024,1.608,0.279,3.238,0.662,4.707c-0.466,0.365-0.954,0.697-1.369,1.125c-0.451,0.386-0.813,0.858-1.209,1.297
		c-1.404-0.547-2.927-0.965-4.492-1.222c-0.472,0.783-0.908,1.587-1.249,2.434c1.048,1.211,2.294,2.294,3.527,3.173
		c-0.118,0.579-0.281,1.147-0.324,1.748C54.62,108.398,54.636,108.999,54.62,109.588L54.62,109.588z"/>
	<path fill="#FFFFFF" d="M41.259,39.699c0.472-3.517,1.938-6.851,4.379-9.424c2.361-2.637,5.652-4.374,9.07-5.092
		c3.436-0.675,7.146-0.225,10.33,1.233c3.149,1.512,5.942,3.967,7.611,7.086c1.767,3.077,2.41,6.658,2.037,10.196
		c-0.469,3.517-1.94,6.84-4.379,9.413c-2.358,2.637-5.65,4.375-9.067,5.092c-3.439,0.676-7.148,0.236-10.33-1.232
		c-3.149-1.512-5.942-3.967-7.615-7.087C41.53,46.807,40.889,43.227,41.259,39.699L41.259,39.699z M26.138,41.736
		c-2.107,0.729-4.208,1.608-6.288,2.626c0.249,3.173,0.823,6.347,1.863,9.359c2.31,0.161,4.538,0.193,6.794,0.053
		c0.541,1.158,1.008,2.359,1.683,3.441c0.611,1.137,1.297,2.209,2.069,3.228c-1.302,1.854-2.495,3.806-3.541,5.821
		c2.002,2.466,4.42,4.578,6.966,6.486c1.948-1.222,3.816-2.573,5.548-3.988c1.059,0.729,2.241,1.243,3.377,1.833
		c1.166,0.536,2.372,0.986,3.583,1.404c0.048,2.219,0.239,4.492,0.571,6.775c3.085,0.762,6.245,1.147,9.424,1.126
		c0.863-2.144,1.584-4.299,2.155-6.454c1.273-0.118,2.549-0.278,3.806-0.515c1.247-0.3,2.514-0.525,3.718-0.986
		c1.348,1.78,2.846,3.538,4.455,5.178c2.921-1.254,5.768-2.734,8.298-4.664c-0.542-2.198-1.241-4.374-2.072-6.486
		c0.992-0.815,1.911-1.694,2.771-2.648c0.914-0.901,1.651-1.951,2.447-2.959c2.166,0.675,4.336,1.168,6.615,1.565
		c1.721-2.691,3.026-5.639,4.015-8.662c-1.783-1.479-3.616-2.831-5.492-4.031c0.324-1.244,0.477-2.509,0.7-3.763
		c0.081-1.275,0.23-2.551,0.209-3.827c2.107-0.729,4.206-1.608,6.288-2.626c-0.249-3.173-0.825-6.347-1.865-9.359
		c-2.305-0.161-4.532-0.193-6.794-0.043c-0.539-1.158-1.005-2.358-1.683-3.452c-0.608-1.125-1.297-2.198-2.066-3.227
		c1.303-1.854,2.495-3.795,3.541-5.821c-2.002-2.466-4.419-4.578-6.966-6.486c-1.951,1.222-3.822,2.573-5.548,3.988
		c-1.062-0.729-2.241-1.243-3.38-1.833c-1.166-0.525-2.369-0.986-3.578-1.404c-0.048-2.219-0.241-4.481-0.574-6.776
		C64.1,3.849,60.94,3.463,57.761,3.484c-0.869,2.155-1.584,4.31-2.152,6.454c-1.276,0.118-2.557,0.278-3.811,0.515
		c-1.247,0.311-2.514,0.525-3.715,0.986c-1.351-1.78-2.849-3.538-4.455-5.178c-2.924,1.254-5.768,2.734-8.298,4.664
		c0.542,2.208,1.241,4.374,2.069,6.497c-0.989,0.804-1.911,1.694-2.771,2.648c-0.912,0.89-1.648,1.951-2.447,2.948
		c-2.16-0.665-4.331-1.168-6.612-1.565c-1.721,2.691-3.026,5.64-4.015,8.663c1.78,1.479,3.616,2.831,5.492,4.031
		c-0.324,1.244-0.477,2.508-0.699,3.773C26.266,39.185,26.116,40.46,26.138,41.736L26.138,41.736z"/>
	<path fill="#FFFFFF" d="M49.632,33.985c1.595-1.812,3.846-2.958,6.133-3.452c2.299-0.451,4.859-0.15,6.987,0.836
		c2.101,1.019,4.025,2.669,5.143,4.792c1.204,2.102,1.611,4.471,1.383,6.883c-0.346,2.401-1.302,4.61-2.967,6.368
		c-1.584,1.801-3.843,2.948-6.127,3.441c-2.302,0.461-4.859,0.15-6.987-0.836c-2.104-1.019-4.023-2.669-5.146-4.792
		c-1.203-2.09-1.611-4.47-1.378-6.882C47.016,37.952,47.97,35.732,49.632,33.985L49.632,33.985z M51.615,55.438
		c2.86,1.318,6.213,1.726,9.298,1.115c3.071-0.643,6.039-2.208,8.161-4.578c2.203-2.326,3.514-5.307,3.945-8.48
		c0.33-3.184-0.244-6.389-1.836-9.166c-1.501-2.819-4.021-5.028-6.854-6.379c-2.854-1.319-6.207-1.726-9.297-1.115
		c-3.066,0.644-6.036,2.209-8.161,4.589c-2.201,2.315-3.511,5.307-3.943,8.48c-0.327,3.184,0.241,6.39,1.833,9.167
		C46.266,51.878,48.788,54.086,51.615,55.438L51.615,55.438z"/>
	<path fill="#FFFFFF" d="M506.773,503.091c-1.6,0.794-3.077,1.737-4.409,2.809c-0.681-0.332-1.409-0.546-2.122-0.793l0.016-0.043
		c-0.721-0.225-1.458-0.413-2.195-0.568c-0.343-1.592-0.844-3.248-1.503-4.829c-1.193-0.092-2.389-0.118-3.581-0.021
		c-0.828,1.549-1.466,3.243-1.916,4.851c-0.737,0.172-1.469,0.37-2.182,0.611l0.008,0.026c-0.646,0.23-1.3,0.451-1.914,0.767
		c-1.228-1.114-2.592-2.144-4.055-3.022c-1.04,0.6-1.997,1.329-2.933,2.079c0.29,1.796,0.697,3.452,1.327,5.065
		c-0.512,0.553-0.979,1.143-1.402,1.77l-0.037-0.027c-0.059,0.075-0.097,0.161-0.152,0.236h29.844
		c-0.049-0.064-0.086-0.145-0.14-0.209l0.038-0.027c-0.438-0.621-0.917-1.2-1.439-1.742c0.702-1.527,1.225-3.104,1.638-4.792
		C508.757,504.447,507.8,503.718,506.773,503.091L506.773,503.091z"/>
	<path fill="#FFFFFF" d="M317.071,512h15.259c0.168-0.252,0.358-0.477,0.525-0.734c-2.435-2.455-5.016-4.781-7.846-6.781
		C322.238,506.892,319.625,509.373,317.071,512L317.071,512z"/>
	<path fill="#FFFFFF" d="M303.313,507.294c0.389-4.101,0.587-8.256,0.593-12.452c-3.369-0.756-6.816-1.362-10.268-1.453
		c-1.168,4.015-2.144,8.046-2.924,12.077c-2.324,0.134-4.682,0.054-6.977,0.515c-2.326,0.257-4.575,0.873-6.832,1.463
		c-1.909-3.726-3.956-7.242-6.215-10.774c-3.289,1.11-6.425,2.627-9.451,4.3c1.121,3.768,2.426,7.439,3.841,11.031h15.628
		c1.251-0.295,2.495-0.633,3.773-0.804c5.197-0.815,10.52-0.429,15.618,0.804h14.092c-1.404-0.831-2.83-1.624-4.328-2.278
		C307.763,508.72,305.543,507.947,303.313,507.294L303.313,507.294z"/>
	<path fill="#FFFFFF" d="M235.574,266.595c0.016-0.702,0.169-1.334,0.579-1.897l0.037,0.027c0.365-0.584,0.976-0.981,1.582-1.222
		l-0.005-0.016c0.568-0.156,1.244-0.15,1.801,0.016l-0.016,0.048c0.605,0.204,1.241,0.573,1.635,1.147l-0.038,0.027
		c0.429,0.536,0.617,1.158,0.665,1.871h-0.048c-0.016,0.697-0.169,1.33-0.579,1.897l-0.038-0.032
		c-0.365,0.584-0.976,0.986-1.582,1.222l0.006,0.016c-0.568,0.15-1.244,0.15-1.801-0.016l0.013-0.048
		c-0.603-0.204-1.238-0.574-1.632-1.142l0.037-0.032c-0.429-0.542-0.616-1.158-0.665-1.866H235.574L235.574,266.595z
		 M217.432,275.204c1.767,0.3,3.535,0.397,5.219,0.316c0.41,0.638,0.782,1.297,1.262,1.876l-0.038,0.027
		c0.437,0.616,0.917,1.201,1.439,1.742c-0.702,1.528-1.225,3.104-1.638,4.792c0.906,0.783,1.863,1.512,2.889,2.139
		c1.6-0.793,3.077-1.737,4.409-2.809c0.681,0.333,1.41,0.547,2.123,0.793l-0.016,0.043c0.721,0.225,1.458,0.413,2.195,0.568
		c0.343,1.592,0.845,3.249,1.504,4.83c1.192,0.091,2.388,0.118,3.581,0.026c0.829-1.554,1.466-3.253,1.917-4.856
		c0.737-0.171,1.469-0.375,2.182-0.611l-0.008-0.027c0.646-0.23,1.3-0.45,1.914-0.767c1.228,1.11,2.592,2.145,4.055,3.023
		c1.04-0.601,1.997-1.33,2.932-2.08c-0.29-1.795-0.697-3.452-1.327-5.065c0.512-0.552,0.978-1.142,1.401-1.769l0.038,0.027
		c0.469-0.59,0.831-1.26,1.225-1.903c1.643,0.182,3.321,0.198,5.065,0.075c0.442-1.12,0.863-2.256,1.131-3.431
		c-1.228-1.275-2.629-2.391-4.033-3.318c0.091-0.75,0.075-1.506,0.099-2.251H257c-0.041-0.756-0.041-1.506-0.147-2.257
		c1.412-0.814,2.854-1.795,4.135-2.911c-0.265-1.179-0.632-2.326-1.08-3.447c-1.766-0.3-3.535-0.396-5.218-0.316
		c-0.41-0.638-0.783-1.297-1.263-1.876l0.038-0.026c-0.437-0.622-0.917-1.201-1.439-1.742c0.702-1.528,1.225-3.104,1.638-4.792
		c-0.906-0.783-1.863-1.512-2.89-2.139c-1.6,0.793-3.077,1.737-4.409,2.809c-0.681-0.333-1.41-0.547-2.123-0.793l0.016-0.043
		c-0.721-0.225-1.458-0.413-2.195-0.568c-0.343-1.592-0.844-3.249-1.503-4.83c-1.193-0.091-2.388-0.118-3.581-0.021
		c-0.828,1.549-1.466,3.243-1.916,4.851c-0.737,0.171-1.469,0.37-2.182,0.611l0.008,0.027c-0.646,0.23-1.3,0.45-1.914,0.767
		c-1.228-1.115-2.591-2.145-4.055-3.023c-1.04,0.6-1.997,1.329-2.933,2.08c0.29,1.796,0.697,3.452,1.327,5.066
		c-0.512,0.552-0.979,1.142-1.402,1.769l-0.038-0.026c-0.469,0.589-0.831,1.259-1.225,1.903c-1.643-0.182-3.321-0.199-5.066-0.075
		c-0.442,1.121-0.863,2.251-1.131,3.431c1.228,1.276,2.629,2.391,4.034,3.324c-0.091,0.745-0.075,1.5-0.099,2.251h-0.048
		c0.04,0.75,0.04,1.501,0.147,2.251c-1.413,0.815-2.854,1.796-4.136,2.916C216.617,272.937,216.984,274.083,217.432,275.204
		L217.432,275.204z"/>
	<path fill="#FFFFFF" d="M332.922,469.583c-6.521,1.238-13.401-0.107-19.1-3.361c-5.757-3.248-10.246-8.673-12.468-14.864
		c-2.3-6.159-2.3-13.224,0-19.389c2.222-6.186,6.711-11.615,12.468-14.864c5.698-3.248,12.579-4.594,19.1-3.355
		c6.479,1.147,12.56,4.589,16.803,9.687c4.253,5.087,6.596,11.594,6.646,18.23c-0.051,6.636-2.394,13.139-6.646,18.23
		C345.481,464.994,339.4,468.436,332.922,469.583L332.922,469.583z M351.289,469.889c1.688-1.453,3.283-3.008,4.729-4.707
		c1.404-1.726,2.699-3.543,3.798-5.483c2.626,0.665,5.199,1.126,7.885,1.475c1.435-2.825,2.515-5.843,3.249-8.926
		c-2.276-1.463-4.552-2.766-6.99-3.939c0.421-2.198,0.558-4.412,0.633-6.642c-0.075-2.23-0.212-4.449-0.633-6.642
		c2.438-1.18,4.714-2.481,6.99-3.94c-0.734-3.082-1.814-6.1-3.249-8.93c-2.686,0.354-5.259,0.814-7.885,1.479
		c-1.099-1.94-2.394-3.758-3.798-5.489c-1.445-1.694-3.04-3.248-4.729-4.707c1.059-2.4,1.992-4.898,2.81-7.488
		c-2.536-1.908-5.329-3.452-8.215-4.771c-1.81,1.94-3.549,4.096-5.111,6.229c-2.072-0.819-4.245-1.361-6.43-1.753
		c-2.192-0.412-4.42-0.535-6.645-0.573c-0.739-2.52-1.627-5.044-2.664-7.553c-3.16,0.177-6.304,0.772-9.359,1.624
		c-0.14,2.653-0.091,5.403,0.083,8.052c-2.106,0.713-4.125,1.683-6.052,2.793c-1.936,1.099-3.744,2.412-5.449,3.838
		c-2.195-1.464-4.502-2.831-6.915-4.085c-2.3,2.188-4.31,4.653-6.122,7.253c1.664,2.171,3.417,4.213,5.25,6.127
		c-1.131,1.908-2.123,3.929-2.841,6.03c-0.809,2.069-1.334,4.256-1.696,6.443c-2.632,0.289-5.291,0.729-7.96,1.324
		c-0.305,3.157-0.305,6.319,0,9.477c2.669,0.596,5.329,1.035,7.96,1.324c0.362,2.188,0.887,4.374,1.696,6.443
		c0.719,2.102,1.71,4.117,2.841,6.03c-1.833,1.914-3.586,3.956-5.25,6.127c1.812,2.6,3.822,5.065,6.122,7.253
		c2.412-1.26,4.72-2.627,6.915-4.085c1.708,1.426,3.514,2.739,5.449,3.838c1.927,1.11,3.945,2.08,6.052,2.793
		c-0.174,2.648-0.223,5.398-0.083,8.046c3.056,0.857,6.199,1.447,9.359,1.63c1.037-2.509,1.925-5.033,2.664-7.553
		c2.225-0.038,4.452-0.161,6.645-0.573c2.185-0.392,4.357-0.934,6.43-1.753c1.563,2.133,3.302,4.288,5.111,6.229
		c2.886-1.324,5.679-2.868,8.215-4.771C353.283,474.793,352.348,472.295,351.289,469.889L351.289,469.889z"/>
	<path fill="#FFFFFF" d="M439.165,499.837c-0.911-1.474-1.731-3.013-2.813-4.363c-1.003-1.42-2.099-2.755-3.3-4.004
		c1.455-2.702,2.745-5.511,3.822-8.39c-3.085-3.001-6.671-5.44-10.396-7.596c-2.426,1.951-4.723,4.069-6.818,6.24
		c-1.542-0.805-3.211-1.309-4.835-1.919c-1.651-0.521-3.343-0.943-5.034-1.309c-0.423-2.98-1.042-5.987-1.86-9.011
		c-4.267-0.541-8.573-0.541-12.843,0c-0.817,3.023-1.437,6.03-1.857,9.011c-1.691,0.365-3.386,0.788-5.036,1.309
		c-1.624,0.61-3.294,1.114-4.833,1.919c-2.099-2.171-4.396-4.289-6.818-6.24c-3.726,2.155-7.312,4.595-10.399,7.596
		c1.081,2.879,2.367,5.688,3.822,8.39c-1.2,1.249-2.297,2.584-3.299,4.004c-1.083,1.351-1.9,2.89-2.814,4.363
		c-3.013-0.552-6.009-0.868-9.137-1.034c-1.882,3.887-3.16,8.057-4.007,12.28c0.533,0.344,1.088,0.59,1.624,0.917h28.258
		c0.667-1.603,1.46-3.157,2.511-4.567c2.75-3.929,6.894-6.78,11.37-8.298c4.51-1.463,9.565-1.463,14.076,0
		c4.479,1.518,8.622,4.369,11.369,8.298c1.051,1.41,1.844,2.965,2.512,4.567h28.26c0.536-0.327,1.088-0.573,1.621-0.917
		c-0.847-4.229-2.125-8.394-4.007-12.28C445.177,498.964,442.178,499.279,439.165,499.837L439.165,499.837z"/>
	<path fill="#FFFFFF" d="M407.845,501.301c-4.05-1.318-8.62-1.318-12.672,0c-4.019,1.361-7.763,3.924-10.233,7.467
		c-0.753,1.014-1.364,2.106-1.9,3.232h5.881c0.053-0.075,0.091-0.155,0.145-0.23c1.847-2.681,4.693-4.589,7.684-5.618
		c3.019-0.98,6.503-0.98,9.523,0c2.988,1.029,5.837,2.938,7.682,5.618c0.053,0.075,0.091,0.155,0.145,0.23h5.88
		c-0.536-1.126-1.147-2.219-1.9-3.232C415.606,505.225,411.865,502.662,407.845,501.301L407.845,501.301z"/>
	<path fill="#FFFFFF" d="M9.346,335.905c-1.536,3.827-2.908,7.762-4.106,11.792c3.026,1.672,6.162,3.189,9.451,4.299
		c2.259-3.533,4.307-7.049,6.215-10.78c2.256,0.595,4.508,1.211,6.832,1.463c2.294,0.461,4.653,0.386,6.977,0.52
		c0.78,4.031,1.756,8.057,2.924,12.077c3.452-0.096,6.899-0.697,10.268-1.453c-0.003-4.197-0.204-8.351-0.593-12.452
		c2.23-0.654,4.449-1.426,6.551-2.428c2.142-0.938,4.157-2.106,6.129-3.361c2.892,3.05,5.859,5.859,9.016,8.598
		c2.831-2.005,5.412-4.326,7.845-6.781c-2.284-3.532-4.707-6.931-7.255-10.168c1.579-1.715,2.935-3.634,4.219-5.575
		c1.278-1.962,2.388-4.01,3.334-6.143c4.069,0.997,8.137,1.79,12.241,2.369c1.302-3.216,2.198-6.572,2.956-9.959
		c-3.843-1.726-7.727-3.27-11.64-4.621c0.466-2.294,0.413-4.642,0.579-6.968c-0.166-2.327-0.113-4.685-0.579-6.979
		c3.913-1.34,7.797-2.884,11.64-4.621c-0.758-3.377-1.654-6.732-2.956-9.959c-4.104,0.589-8.172,1.372-12.241,2.38
		c-0.946-2.144-2.056-4.192-3.334-6.143c-1.284-1.94-2.64-3.859-4.219-5.575c2.549-3.249,4.972-6.647,7.255-10.174
		c-2.434-2.455-5.015-4.781-7.845-6.775c-3.157,2.734-6.124,5.543-9.016,8.587c-1.973-1.254-3.988-2.412-6.129-3.355
		c-2.102-0.997-4.32-1.769-6.551-2.423c0.389-4.106,0.587-8.255,0.593-12.458c-3.369-0.751-6.816-1.362-10.268-1.447
		c-1.168,4.009-2.144,8.04-2.924,12.071c-2.324,0.14-4.682,0.054-6.977,0.515c-2.326,0.257-4.575,0.879-6.832,1.469
		c-1.909-3.731-3.956-7.247-6.215-10.774c-3.289,1.104-6.425,2.626-9.451,4.299c1.198,4.031,2.57,7.966,4.106,11.793
		c-1.983,1.223-3.849,2.648-5.609,4.17c-1.348,1.142-2.541,2.45-3.736,3.747v8.421c2.037-3.018,4.422-5.811,7.188-8.191
		c5.987-5.189,13.449-8.663,21.294-9.713c7.842-1.233,16.025,0.053,23.189,3.313c7.207,3.259,13.431,8.695,17.716,15.352
		c4.337,6.658,6.537,14.517,6.631,22.471c-0.094,7.944-2.294,15.813-6.631,22.471c-4.285,6.658-10.509,12.083-17.716,15.347
		c-7.164,3.259-15.347,4.545-23.189,3.313c-7.845-1.051-15.307-4.524-21.294-9.718c-2.766-2.38-5.151-5.167-7.188-8.186v8.416
		c1.195,1.302,2.385,2.605,3.736,3.757C5.497,333.251,7.362,334.683,9.346,335.905L9.346,335.905z"/>
	<path fill="#FFFFFF" d="M4.886,16.167c-1.228-1.276-2.629-2.391-4.033-3.323c0.091-0.75,0.075-1.501,0.099-2.251H1
		c-0.041-0.75-0.041-1.501-0.147-2.251C2.265,7.526,3.707,6.54,4.988,5.425c-0.265-1.179-0.632-2.326-1.08-3.441
		C2.584,1.758,1.289,1.753,0,1.742v17.802c1.233,0.07,2.46,0.14,3.755,0.054C4.197,18.472,4.618,17.335,4.886,16.167L4.886,16.167z"
		/>
	<path fill="#FFFFFF" d="M254.103,404.438c-4.152,4.149-9.121,7.479-14.529,9.714c-5.406,2.245-11.244,3.393-17.135,3.403
		c-5.891-0.011-11.729-1.158-17.135-3.403c-5.408-2.235-10.377-5.564-14.529-9.714c-4.151-4.154-7.478-9.123-9.716-14.532
		c-2.246-5.409-3.396-11.241-3.401-17.132c0.005-5.896,1.155-11.729,3.401-17.137c2.238-5.409,5.564-10.378,9.716-14.532
		c4.152-4.149,9.121-7.478,14.529-9.713c5.406-2.251,11.244-3.398,17.135-3.398s11.726,1.147,17.135,3.398
		c5.408,2.235,10.377,5.564,14.529,9.713c4.151,4.154,7.478,9.124,9.716,14.532c2.246,5.409,3.396,11.241,3.401,17.132
		c-0.005,5.891-1.155,11.729-3.401,17.137C261.58,395.314,258.254,400.283,254.103,404.438L254.103,404.438z M264.872,422.133
		c1.254-1.051,2.423-2.192,3.605-3.323c1.131-1.18,2.272-2.354,3.323-3.608c2.798,1.186,5.647,2.246,8.547,3.189
		c2.375-3.007,4.535-6.19,6.397-9.552c-1.97-2.315-4.071-4.562-6.21-6.689c0.769-1.448,1.407-2.959,2.058-4.46
		c0.617-1.518,1.204-3.045,1.702-4.605c3.047,0.016,6.063-0.102,9.121-0.343c1.032-3.698,1.815-7.478,2.235-11.294
		c-2.709-1.378-5.508-2.643-8.306-3.785c0.156-1.629,0.153-3.259,0.201-4.894c-0.048-1.629-0.045-3.265-0.201-4.894
		c2.798-1.136,5.597-2.401,8.306-3.779c-0.42-3.817-1.203-7.596-2.238-11.3c-3.058-0.236-6.071-0.359-9.118-0.338
		c-0.499-1.56-1.085-3.088-1.702-4.61c-0.651-1.501-1.292-3.013-2.058-4.455c2.139-2.128,4.24-4.374,6.21-6.69
		c-1.863-3.361-4.023-6.545-6.397-9.558c-2.9,0.943-5.75,2.005-8.547,3.195c-1.051-1.265-2.195-2.434-3.323-3.613
		c-1.182-1.125-2.351-2.273-3.608-3.324c1.182-2.798,2.246-5.639,3.192-8.544c-3.01-2.38-6.197-4.535-9.555-6.4
		c-2.315,1.973-4.562,4.074-6.689,6.207c-1.445-0.761-2.957-1.404-4.458-2.059c-1.517-0.611-3.047-1.2-4.607-1.693
		c0.019-3.045-0.104-6.068-0.341-9.124c-3.701-1.029-7.483-1.812-11.297-2.241c-1.38,2.712-2.643,5.51-3.782,8.309
		c-1.629-0.15-3.262-0.15-4.894-0.193c-1.632,0.042-3.265,0.042-4.894,0.193c-1.142-2.798-2.404-5.596-3.785-8.309
		c-3.813,0.429-7.593,1.211-11.294,2.241c-0.239,3.055-0.359,6.079-0.341,9.124c-1.56,0.493-3.09,1.083-4.607,1.693
		c-1.5,0.654-3.012,1.297-4.459,2.059c-2.125-2.133-4.374-4.234-6.69-6.207c-3.358,1.865-6.545,4.02-9.552,6.4
		c0.946,2.906,2.007,5.747,3.189,8.544c-1.254,1.051-2.423,2.198-3.605,3.324c-1.131,1.179-2.272,2.358-3.323,3.613
		c-2.798-1.19-5.647-2.251-8.547-3.195c-2.375,3.013-4.535,6.197-6.397,9.558c1.97,2.316,4.071,4.562,6.21,6.69
		c-0.769,1.447-1.407,2.954-2.058,4.455c-0.617,1.522-1.204,3.05-1.702,4.61c-3.047-0.016-6.063,0.102-9.121,0.343
		c-1.034,3.699-1.814,7.478-2.235,11.295c2.709,1.377,5.508,2.643,8.306,3.784c-0.155,1.629-0.153,3.259-0.201,4.894
		c0.048,1.629,0.045,3.265,0.201,4.894c-2.798,1.137-5.596,2.401-8.306,3.779c0.42,3.816,1.201,7.596,2.238,11.3
		c3.058,0.235,6.071,0.359,9.118,0.337c0.499,1.56,1.085,3.087,1.702,4.61c0.651,1.501,1.292,3.013,2.058,4.455
		c-2.139,2.128-4.24,4.374-6.21,6.689c1.863,3.361,4.023,6.545,6.397,9.558c2.9-0.949,5.749-2.01,8.547-3.195
		c1.051,1.26,2.192,2.429,3.323,3.608c1.182,1.131,2.351,2.272,3.605,3.323c-1.179,2.798-2.243,5.645-3.189,8.55
		c3.007,2.374,6.194,4.535,9.552,6.395c2.316-1.967,4.564-4.068,6.692-6.207c1.445,0.767,2.957,1.404,4.457,2.059
		c1.518,0.616,3.048,1.2,4.61,1.699c-0.021,3.045,0.099,6.063,0.338,9.118c3.701,1.034,7.483,1.816,11.297,2.24
		c1.377-2.712,2.643-5.511,3.782-8.309c1.629,0.155,3.262,0.155,4.894,0.198c1.632-0.043,3.265-0.043,4.894-0.198
		c1.142,2.798,2.404,5.597,3.785,8.309c3.813-0.424,7.593-1.206,11.294-2.24c0.239-3.056,0.359-6.073,0.341-9.118
		c1.56-0.499,3.09-1.083,4.607-1.699c1.501-0.654,3.013-1.292,4.46-2.059c2.125,2.134,4.374,4.24,6.69,6.207
		c3.358-1.865,6.545-4.021,9.552-6.4C267.115,427.777,266.051,424.931,264.872,422.133L264.872,422.133z"/>
	<path fill="#FFFFFF" d="M257.005,387.081c-1.865,4.508-4.645,8.662-8.115,12.142c-3.477,3.473-7.633,6.25-12.142,8.115
		c-4.511,1.871-9.365,2.83-14.31,2.841c-4.945-0.011-9.799-0.97-14.31-2.841c-4.508-1.865-8.665-4.643-12.139-8.115
		c-3.474-3.479-6.253-7.634-8.118-12.142c-1.871-4.508-2.831-9.365-2.839-14.307c0.008-4.948,0.968-9.799,2.839-14.312
		c1.865-4.508,4.645-8.663,8.118-12.142c3.474-3.474,7.63-6.25,12.139-8.116c4.511-1.871,9.364-2.83,14.31-2.841
		c4.945,0.011,9.799,0.97,14.31,2.841c4.508,1.866,8.665,4.642,12.139,8.116c3.474,3.479,6.253,7.633,8.118,12.142
		c1.871,4.508,2.831,9.364,2.838,14.307C259.835,377.716,258.876,382.567,257.005,387.081L257.005,387.081z M261.717,356.505
		c-2.123-5.13-5.28-9.847-9.223-13.792c-3.942-3.94-8.662-7.097-13.792-9.22c-5.13-2.133-10.665-3.227-16.264-3.227
		c-5.599,0-11.134,1.094-16.264,3.227c-5.13,2.123-9.85,5.28-13.792,9.22c-3.943,3.945-7.1,8.662-9.223,13.792
		c-2.131,5.136-3.222,10.667-3.227,16.269c0.005,5.596,1.096,11.128,3.227,16.264c2.123,5.13,5.28,9.847,9.223,13.792
		c3.942,3.939,8.662,7.097,13.792,9.22c5.13,2.134,10.665,3.222,16.264,3.227c5.599-0.005,11.134-1.099,16.264-3.227
		c5.13-2.123,9.85-5.28,13.792-9.22c3.943-3.945,7.1-8.663,9.223-13.792c2.131-5.135,3.222-10.667,3.227-16.269
		C264.938,367.172,263.848,361.641,261.717,356.505L261.717,356.505z"/>
	<path fill="#FFFFFF" d="M54.993,422.744c-3.018,0.396-5.91,0.916-8.864,1.661c-1.233-2.182-2.688-4.219-4.267-6.164
		c-1.625-1.908-3.415-3.65-5.313-5.291c1.188-2.701,2.238-5.511,3.155-8.416c-2.849-2.144-5.988-3.881-9.23-5.36
		c-2.035,2.177-3.988,4.6-5.747,6.995c-2.326-0.916-4.771-1.527-7.226-1.967c-2.463-0.467-4.967-0.601-7.467-0.644
		c-0.831-2.836-1.828-5.671-2.994-8.491c-2.367,0.134-4.715,0.531-7.041,1.029v18.504c5.076-1.759,10.592-2.311,15.907-1.303
		c7.279,1.286,14.114,5.156,18.882,10.887c4.781,5.715,7.414,13.031,7.47,20.487c-0.056,7.457-2.688,14.769-7.47,20.487
		c-4.768,5.73-11.603,9.602-18.882,10.888c-5.315,1.008-10.831,0.455-15.907-1.303v18.499c2.326,0.498,4.674,0.9,7.041,1.034
		c1.166-2.819,2.163-5.655,2.994-8.491c2.5-0.043,5.004-0.177,7.467-0.643c2.455-0.439,4.899-1.051,7.226-1.968
		c1.758,2.396,3.712,4.819,5.747,6.995c3.243-1.484,6.381-3.221,9.23-5.359c-0.914-2.906-1.967-5.715-3.155-8.422
		c1.898-1.635,3.688-3.377,5.313-5.291c1.579-1.94,3.034-3.977,4.267-6.158c2.954,0.744,5.846,1.265,8.864,1.656
		c1.611-3.179,2.825-6.566,3.65-10.035c-2.557-1.641-5.114-3.104-7.856-4.428c0.472-2.466,0.627-4.958,0.71-7.462
		c-0.083-2.503-0.239-5.001-0.71-7.462c2.742-1.329,5.299-2.792,7.856-4.427C57.817,429.315,56.604,425.923,54.993,422.744
		L54.993,422.744z"/>
	<path fill="#FFFFFF" d="M57.823,210.225c-5.757-3.248-10.247-8.673-12.468-14.87c-2.3-6.154-2.3-13.219,0-19.383
		c2.222-6.186,6.711-11.621,12.468-14.87c5.698-3.249,12.578-4.588,19.099-3.356c6.478,1.147,12.56,4.589,16.802,9.692
		c4.253,5.082,6.596,11.589,6.647,18.225c-0.051,6.637-2.394,13.144-6.647,18.236c-4.243,5.092-10.324,8.534-16.802,9.681
		C70.401,214.824,63.521,213.473,57.823,210.225L57.823,210.225z M69.034,229.801c1.037-2.508,1.924-5.028,2.664-7.547
		c2.225-0.043,4.452-0.161,6.645-0.579c2.184-0.386,4.357-0.933,6.43-1.748c1.563,2.133,3.302,4.288,5.111,6.229
		c2.887-1.329,5.679-2.873,8.215-4.771c-0.815-2.595-1.75-5.092-2.809-7.494c1.688-1.458,3.283-3.012,4.728-4.707
		c1.404-1.726,2.699-3.548,3.798-5.489c2.626,0.665,5.199,1.125,7.885,1.479c1.434-2.831,2.514-5.843,3.249-8.931
		c-2.275-1.458-4.551-2.766-6.99-3.935c0.42-2.198,0.557-4.417,0.632-6.647c-0.075-2.229-0.212-4.449-0.632-6.636
		c2.438-1.18,4.714-2.487,6.99-3.945c-0.734-3.077-1.814-6.101-3.249-8.931c-2.686,0.354-5.258,0.815-7.885,1.479
		c-1.099-1.94-2.394-3.752-3.798-5.489c-1.445-1.694-3.04-3.248-4.728-4.706c1.059-2.401,1.991-4.899,2.809-7.483
		c-2.536-1.908-5.328-3.452-8.215-4.771c-1.809,1.94-3.548,4.095-5.111,6.229c-2.072-0.825-4.246-1.361-6.43-1.758
		c-2.193-0.408-4.42-0.536-6.645-0.568c-0.74-2.52-1.627-5.05-2.664-7.559c-3.16,0.183-6.304,0.772-9.359,1.63
		c-0.14,2.648-0.091,5.403,0.083,8.051c-2.106,0.708-4.125,1.683-6.052,2.788c-1.935,1.104-3.744,2.412-5.449,3.838
		c-2.195-1.458-4.503-2.83-6.915-4.084c-2.3,2.187-4.31,4.653-6.122,7.258c1.664,2.166,3.417,4.213,5.25,6.122
		c-1.131,1.908-2.123,3.935-2.841,6.036c-0.809,2.069-1.334,4.256-1.696,6.443c-2.632,0.29-5.291,0.729-7.96,1.319
		c-0.306,3.163-0.306,6.325,0,9.477c2.669,0.601,5.328,1.04,7.96,1.33c0.362,2.187,0.887,4.374,1.696,6.443
		c0.719,2.101,1.71,4.117,2.841,6.025c-1.833,1.919-3.586,3.956-5.25,6.132c1.812,2.594,3.822,5.06,6.122,7.247
		c2.412-1.254,4.72-2.626,6.915-4.084c1.707,1.426,3.514,2.745,5.449,3.838c1.927,1.115,3.945,2.08,6.052,2.798
		c-0.174,2.648-0.223,5.393-0.083,8.041C62.73,229.029,65.874,229.619,69.034,229.801L69.034,229.801z"/>
	<path fill="#FFFFFF" d="M76.024,395.728c-1.793-4.503-1.793-9.713,0-14.206c1.737-4.508,5.184-8.523,9.652-10.887
		c4.406-2.359,9.702-3.361,14.749-2.439c4.979,0.836,9.721,3.313,12.983,7.086c3.296,3.72,5.117,8.469,5.157,13.342
		c-0.04,4.873-1.86,9.606-5.157,13.342c-3.262,3.773-8.003,6.239-12.983,7.081c-5.047,0.922-10.343-0.075-14.749-2.438
		C81.208,404.256,77.761,400.24,76.024,395.728L76.024,395.728z M85.949,418.16c-0.064,3.217,0.169,6.363,0.649,9.59
		c1.774,0.504,3.607,0.691,5.422,0.96c1.745-2.847,3.192-5.849,4.342-8.791c1.938-0.043,3.876-0.134,5.787-0.478
		c1.903-0.321,3.809-0.767,5.615-1.441c1.921,2.53,4.066,4.953,6.417,7.15c1.699-0.724,3.305-1.65,4.883-2.605
		c-0.359-3.296-1.088-6.582-2.018-9.605c1.509-1.217,2.94-2.52,4.229-3.978c1.279-1.458,2.453-3.007,3.441-4.685
		c3.133,0.756,6.229,1.174,9.518,1.367c0.874-1.651,1.45-3.479,2.088-5.232c-2.503-2.321-5.031-4.31-7.805-6.003
		c0.377-1.914,0.52-3.843,0.579-5.784c-0.059-1.946-0.201-3.881-0.579-5.794c2.817-1.528,5.398-3.297,7.981-5.366
		c-0.517-1.807-1.219-3.576-1.978-5.286c-3.415-0.032-6.574,0.167-9.804,0.793c-0.992-1.667-2.163-3.232-3.441-4.69
		c-1.289-1.447-2.72-2.766-4.229-3.983c1.074-2.927,1.94-6.036,2.564-9.273c-1.595-0.917-3.146-1.935-4.846-2.659
		c-2.586,2.085-4.916,4.385-7,6.883c-1.807-0.691-3.712-1.12-5.615-1.442c-1.911-0.354-3.849-0.439-5.787-0.477
		c-0.983-2.964-2.216-5.934-3.712-8.861c-1.812,0.241-3.65,0.424-5.433,0.879c-0.729,3.297-1.18,6.454-1.268,9.735
		c-1.849,0.589-3.616,1.404-5.328,2.316c-1.705,0.927-3.305,2.026-4.835,3.221c-2.613-1.715-5.444-3.27-8.445-4.604
		c-1.273,1.362-2.616,2.648-3.715,4.165c1.447,2.986,3.184,5.79,5.165,8.352c-1.045,1.629-1.927,3.382-2.592,5.205
		c-0.734,1.795-1.232,3.693-1.563,5.602c-3.093,0.423-6.357,1.131-9.386,2.144c-0.134,1.876-0.198,3.747-0.038,5.628
		c3.037,1.276,6.274,2.203,9.423,2.798c0.33,1.903,0.828,3.795,1.563,5.591c0.665,1.828,1.547,3.586,2.592,5.205
		c-2.05,2.417-3.942,5.071-5.559,7.848c1.099,1.517,2.361,2.873,3.661,4.208c3.128-1.088,6.17-2.552,8.893-4.139
		c1.53,1.201,3.13,2.289,4.835,3.228C82.333,416.756,84.1,417.565,85.949,418.16L85.949,418.16z"/>
	<path fill="#FFFFFF" d="M18.734,291.435c1.316-3.409,3.924-6.443,7.301-8.234c3.329-1.779,7.338-2.541,11.152-1.844
		c3.768,0.633,7.354,2.509,9.823,5.36c2.49,2.809,3.868,6.411,3.9,10.088c-0.032,3.688-1.41,7.269-3.9,10.088
		c-2.468,2.852-6.055,4.717-9.823,5.36c-3.814,0.686-7.824-0.064-11.152-1.844c-3.377-1.78-5.985-4.825-7.301-8.234
		C17.381,298.768,17.381,294.833,18.734,291.435L18.734,291.435z M10.123,292.807c-2.34,0.322-4.808,0.858-7.1,1.619
		c-0.1,1.426-0.15,2.841-0.027,4.256c2.294,0.976,4.744,1.672,7.126,2.123c0.247,1.437,0.627,2.873,1.18,4.224
		c0.503,1.383,1.174,2.712,1.962,3.945c-1.552,1.823-2.983,3.828-4.206,5.929c0.831,1.147,1.788,2.176,2.771,3.184
		c2.367-0.825,4.664-1.93,6.727-3.13c1.155,0.911,2.367,1.726,3.656,2.434c1.294,0.697,2.629,1.308,4.025,1.758
		c-0.045,2.423,0.131,4.803,0.49,7.247c1.343,0.386,2.731,0.525,4.101,0.729c1.321-2.155,2.415-4.428,3.286-6.647
		c1.466-0.032,2.932-0.107,4.374-0.364c1.439-0.247,2.884-0.579,4.249-1.094c1.455,1.919,3.077,3.742,4.851,5.403
		c1.289-0.547,2.503-1.243,3.696-1.962c-0.273-2.498-0.825-4.985-1.525-7.269c1.142-0.911,2.219-1.908,3.195-3.002
		c0.967-1.104,1.857-2.272,2.603-3.548c2.372,0.579,4.711,0.89,7.202,1.04c0.659-1.254,1.094-2.637,1.576-3.966
		c-1.89-1.748-3.806-3.249-5.902-4.535c0.287-1.447,0.395-2.905,0.437-4.374c-0.042-1.469-0.15-2.927-0.437-4.385
		c2.131-1.158,4.082-2.498,6.039-4.052c-0.395-1.373-0.925-2.702-1.499-3.999c-2.583-0.032-4.969,0.128-7.416,0.6
		c-0.75-1.265-1.635-2.444-2.603-3.548c-0.976-1.094-2.053-2.091-3.195-3.013c0.812-2.219,1.466-4.567,1.938-7.011
		c-1.206-0.697-2.38-1.458-3.664-2.016c-1.957,1.586-3.717,3.313-5.296,5.21c-1.364-0.525-2.809-0.847-4.249-1.094
		c-1.442-0.268-2.908-0.332-4.374-0.364c-0.742-2.241-1.675-4.481-2.809-6.701c-1.37,0.182-2.758,0.322-4.109,0.665
		c-0.549,2.498-0.89,4.889-0.959,7.365c-1.396,0.45-2.731,1.062-4.025,1.758c-1.29,0.697-2.501,1.533-3.656,2.434
		c-1.978-1.297-4.122-2.477-6.387-3.495c-0.965,1.04-1.98,2.005-2.814,3.163c1.097,2.251,2.41,4.374,3.908,6.315
		c-0.788,1.233-1.458,2.562-1.962,3.934C10.75,289.923,10.37,291.371,10.123,292.807L10.123,292.807z"/>
	<path fill="#FFFFFF" d="M225.491,497.371c-2.656,3.077-6.519,5.088-10.579,5.773c-4.112,0.75-8.429-0.064-12.021-1.988
		c-3.637-1.92-6.448-5.194-7.864-8.872c-1.46-3.661-1.46-7.912,0-11.573c1.416-3.672,4.227-6.947,7.864-8.871
		c3.592-1.925,7.909-2.739,12.021-1.988c4.06,0.681,7.922,2.695,10.579,5.772c2.691,3.034,4.173,6.904,4.205,10.876
		C229.664,490.473,228.182,494.332,225.491,497.371L225.491,497.371z M242.698,473.1c-2.782-0.032-5.358,0.134-7.99,0.643
		c-0.81-1.361-1.764-2.632-2.804-3.821c-1.05-1.18-2.216-2.257-3.449-3.249c0.876-2.385,1.584-4.92,2.093-7.553
		c-1.3-0.75-2.568-1.581-3.951-2.171c-2.107,1.705-4.007,3.575-5.704,5.612c-1.474-0.563-3.026-0.916-4.578-1.179
		c-1.557-0.284-3.136-0.354-4.714-0.386c-0.802-2.418-1.81-4.836-3.026-7.221c-1.477,0.198-2.972,0.343-4.428,0.718
		c-0.592,2.686-0.959,5.259-1.032,7.929c-1.506,0.482-2.948,1.146-4.342,1.892c-1.388,0.751-2.694,1.651-3.94,2.621
		c-2.131-1.398-4.438-2.658-6.885-3.746c-1.038,1.104-2.131,2.154-3.026,3.388c1.179,2.434,2.594,4.717,4.21,6.808
		c-0.853,1.329-1.573,2.755-2.115,4.24c-0.598,1.463-1.002,3.013-1.273,4.566c-2.52,0.349-5.178,0.922-7.647,1.748
		c-0.112,1.527-0.163,3.056-0.032,4.588c2.477,1.04,5.114,1.796,7.679,2.278c0.271,1.555,0.675,3.099,1.273,4.562
		c0.542,1.485,1.262,2.917,2.115,4.24c-1.672,1.968-3.216,4.128-4.532,6.396c0.898,1.232,1.924,2.342,2.983,3.431
		c2.549-0.89,5.028-2.08,7.25-3.372c1.246,0.976,2.552,1.865,3.94,2.627c1.394,0.739,2.835,1.398,4.342,1.881
		c-0.011,0.482,0.03,0.955,0.035,1.432h8.451c1.579-0.032,3.157-0.107,4.714-0.386c1.552-0.263,3.104-0.622,4.578-1.18
		c0.421,0.552,0.957,1.024,1.402,1.565h7.457c-0.324-1.951-0.743-3.881-1.297-5.682c1.233-0.992,2.399-2.059,3.449-3.243
		c1.04-1.19,1.997-2.455,2.804-3.817c2.554,0.617,5.076,0.955,7.756,1.11c0.713-1.346,1.182-2.831,1.702-4.262
		c-2.042-1.893-4.101-3.511-6.36-4.889c0.309-1.56,0.424-3.136,0.472-4.718c-0.048-1.586-0.163-3.162-0.472-4.722
		c2.294-1.249,4.398-2.691,6.502-4.374C243.888,475.93,243.317,474.493,242.698,473.1L242.698,473.1z"/>
	<path fill="#FFFFFF" d="M138.609,500.17c-2.951,3.548-7.169,5.918-11.637,6.711c-4.541,0.879-9.3-0.086-13.238-2.321
		c-3.999-2.24-7.116-6.03-8.644-10.303c-1.597-4.24-1.597-9.193,0-13.433c1.528-4.272,4.645-8.063,8.644-10.303
		c3.938-2.235,8.697-3.2,13.238-2.321c4.468,0.793,8.687,3.162,11.637,6.711c2.951,3.549,4.551,8.009,4.607,12.629
		C143.161,492.161,141.561,496.626,138.609,500.17L138.609,500.17z M165.578,468.635c-4.549-0.146-8.934,0.23-13.206,1.142
		c-0.804-1.442-1.874-2.707-2.871-4.016c-1.099-1.228-2.195-2.455-3.458-3.521c1.814-3.919,3.149-7.96,4.146-12.297
		c-2.091-1.447-4.264-2.819-6.593-3.886c-3.549,2.744-6.722,5.966-9.381,9.332c-1.568-0.488-3.166-0.949-4.79-1.201
		c-1.625-0.3-3.262-0.461-4.91-0.493c-1.131-4.191-2.707-8.089-4.725-12.082c-2.53,0.247-5.084,0.568-7.55,1.26
		c-0.954,4.39-1.321,8.877-1.19,13.182c-1.522,0.616-3.026,1.318-4.438,2.154c-1.439,0.815-2.79,1.753-4.087,2.776
		c-3.533-2.454-7.277-4.459-11.399-6.218c-1.771,1.833-3.481,3.731-4.953,5.821c2.069,3.951,4.747,7.682,7.542,10.855
		c-0.705,1.484-1.488,2.942-1.992,4.514c-0.632,1.527-0.951,3.151-1.38,4.743c-4.165,0.413-8.478,1.271-12.696,2.584
		c-0.193,2.541-0.266,5.087-0.054,7.628c4.127,1.693,8.579,2.836,12.75,3.468c0.429,1.593,0.748,3.217,1.38,4.744
		c0.504,1.571,1.287,3.029,1.992,4.519c-2.442,2.498-4.707,5.345-6.789,8.357h59.943c0.908-0.863,1.796-1.748,2.632-2.68
		c0.997-1.303,2.066-2.573,2.871-4.016c4.146,1.094,8.442,1.753,12.822,1.946c1.153-2.284,1.983-4.729,2.699-7.178
		c-3.382-3.034-6.99-5.564-10.85-7.612c0.322-1.618,0.281-3.28,0.394-4.921c-0.113-1.64-0.072-3.296-0.394-4.921
		c3.876-1.827,7.601-4.084,11.075-6.754C167.532,473.378,166.594,470.972,165.578,468.635L165.578,468.635z"/>
	<path fill="#FFFFFF" d="M163.916,278.152c-2.747,3.935-6.891,6.787-11.369,8.298c-4.511,1.469-9.566,1.469-14.077,0
		c-4.476-1.511-8.62-4.363-11.37-8.298c-2.865-3.849-4.304-8.555-4.371-13.358c0.067-4.803,1.506-9.51,4.371-13.358
		c2.75-3.935,6.894-6.786,11.37-8.298c4.511-1.469,9.566-1.469,14.077,0c4.479,1.512,8.622,4.363,11.369,8.298
		c2.865,3.849,4.305,8.555,4.372,13.358C168.221,269.597,166.781,274.303,163.916,278.152L163.916,278.152z M192.302,242.805
		c-3.125,0.161-6.125,0.472-9.137,1.029c-0.912-1.469-1.731-3.012-2.814-4.363c-1.002-1.415-2.099-2.755-3.299-3.999
		c1.456-2.702,2.745-5.51,3.822-8.394c-3.085-3.002-6.671-5.436-10.396-7.591c-2.426,1.951-4.723,4.063-6.819,6.24
		c-1.541-0.804-3.211-1.308-4.835-1.919c-1.651-0.525-3.342-0.943-5.034-1.308c-0.423-2.98-1.042-5.993-1.86-9.016
		c-4.267-0.536-8.574-0.536-12.843,0c-0.818,3.023-1.437,6.036-1.857,9.016c-1.691,0.365-3.385,0.783-5.036,1.308
		c-1.625,0.611-3.294,1.115-4.833,1.919c-2.099-2.176-4.396-4.289-6.818-6.24c-3.726,2.155-7.312,4.589-10.399,7.591
		c1.08,2.884,2.367,5.692,3.822,8.394c-1.2,1.244-2.297,2.584-3.299,3.999c-1.083,1.351-1.9,2.895-2.814,4.363
		c-3.013-0.547-6.009-0.868-9.137-1.029c-1.882,3.881-3.16,8.051-4.007,12.275c2.632,1.705,5.314,3.216,8.03,4.535
		c-0.236,1.715-0.239,3.452-0.335,5.178c0.096,1.726,0.099,3.452,0.335,5.167c-2.715,1.319-5.398,2.841-8.03,4.546
		c0.847,4.224,2.125,8.395,4.007,12.275c3.128-0.161,6.124-0.482,9.137-1.029c0.914,1.469,1.731,3.013,2.814,4.363
		c1.002,1.415,2.099,2.755,3.299,3.999c-1.452,2.702-2.742,5.511-3.822,8.384c3.087,3.013,6.674,5.446,10.399,7.601
		c2.423-1.951,4.72-4.063,6.818-6.24c1.539,0.804,3.211,1.308,4.833,1.919c1.651,0.525,3.345,0.943,5.036,1.308
		c0.423,2.98,1.042,5.993,1.857,9.016c4.27,0.536,8.576,0.536,12.843,0c0.817-3.023,1.437-6.036,1.86-9.016
		c1.691-0.365,3.383-0.783,5.034-1.308c1.624-0.611,3.294-1.115,4.835-1.919c2.099,2.176,4.393,4.289,6.819,6.24
		c3.725-2.155,7.312-4.599,10.399-7.601c-1.08-2.873-2.369-5.682-3.825-8.384c1.201-1.244,2.297-2.584,3.299-3.999
		c1.083-1.351,1.903-2.895,2.814-4.363c3.015,0.547,6.012,0.868,9.137,1.029c1.881-3.881,3.163-8.051,4.007-12.275
		c-2.632-1.705-5.315-3.227-8.027-4.546c0.236-1.715,0.236-3.441,0.333-5.167c-0.097-1.726-0.097-3.463-0.333-5.178
		c2.712-1.319,5.396-2.831,8.027-4.535C195.462,250.856,194.184,246.687,192.302,242.805L192.302,242.805z"/>
	<path fill="#FFFFFF" d="M157.953,273.821c-1.844,2.68-4.693,4.578-7.681,5.618c-3.021,0.976-6.505,0.976-9.523,0
		c-2.991-1.04-5.837-2.938-7.684-5.618c-1.954-2.616-2.881-5.747-2.959-9.027c0.078-3.281,1.005-6.411,2.959-9.027
		c1.847-2.68,4.693-4.588,7.684-5.618c3.018-0.976,6.502-0.976,9.523,0c2.988,1.029,5.837,2.938,7.681,5.618
		c1.954,2.616,2.884,5.747,2.961,9.027C160.836,268.074,159.906,271.205,157.953,273.821L157.953,273.821z M151.845,245.303
		c-4.05-1.319-8.62-1.319-12.672,0c-4.018,1.362-7.762,3.924-10.233,7.462c-2.584,3.473-3.865,7.697-3.938,12.029
		c0.073,4.331,1.354,8.555,3.938,12.028c2.471,3.538,6.215,6.101,10.233,7.462c4.053,1.319,8.623,1.319,12.672,0
		c4.02-1.361,7.762-3.924,10.233-7.462c2.583-3.473,3.868-7.697,3.937-12.028c-0.069-4.332-1.354-8.556-3.937-12.029
		C159.606,249.227,155.865,246.665,151.845,245.303L151.845,245.303z"/>
	<path fill="#FFFFFF" d="M12.061,174.674c-0.946-2.9-2.01-5.746-3.189-8.544c1.254-1.051,2.423-2.192,3.605-3.323
		c1.131-1.18,2.272-2.354,3.323-3.607c2.798,1.185,5.647,2.246,8.547,3.189c2.375-3.007,4.535-6.191,6.397-9.553
		c-1.97-2.315-4.071-4.562-6.21-6.689c0.769-1.447,1.407-2.959,2.058-4.46c0.617-1.517,1.204-3.045,1.702-4.604
		c3.047,0.016,6.063-0.102,9.121-0.343c1.032-3.699,1.815-7.478,2.235-11.294c-2.709-1.377-5.508-2.643-8.306-3.784
		c0.155-1.63,0.153-3.259,0.201-4.895c-0.048-1.629-0.045-3.264-0.201-4.894c2.798-1.137,5.596-2.402,8.306-3.779
		c-0.42-3.816-1.203-7.596-2.238-11.3c-3.058-0.236-6.071-0.359-9.118-0.338c-0.499-1.56-1.085-3.087-1.702-4.61
		c-0.651-1.5-1.292-3.012-2.058-4.455c2.139-2.128,4.24-4.374,6.21-6.689c-1.863-3.361-4.023-6.545-6.397-9.558
		c-2.9,0.949-5.749,2.01-8.547,3.195c-1.051-1.26-2.195-2.428-3.323-3.608c-1.182-1.131-2.351-2.272-3.608-3.323
		c1.182-2.798,2.246-5.645,3.192-8.55c-3.01-2.375-6.197-4.535-9.555-6.395C1.638,53.197,0.844,54.017,0,54.789v32.409
		c3.256,3.699,5.939,7.896,7.818,12.436c2.246,5.409,3.396,11.241,3.401,17.132c-0.005,5.892-1.155,11.729-3.401,17.138
		c-1.879,4.54-4.562,8.737-7.818,12.436v32.409c0.847,0.772,1.64,1.586,2.509,2.326C5.867,179.209,9.054,177.055,12.061,174.674
		L12.061,174.674z"/>
	<path fill="#FFFFFF" d="M8.944,116.766c-0.005-5.596-1.096-11.128-3.227-16.263C4.275,97.018,2.321,93.743,0,90.752v9.584
		c0.346,0.702,0.705,1.399,1.005,2.123c1.871,4.508,2.831,9.365,2.838,14.307c-0.008,4.948-0.967,9.799-2.838,14.313
		c-0.3,0.724-0.659,1.421-1.005,2.123v9.584c2.321-2.991,4.275-6.266,5.717-9.75C7.848,127.899,8.938,122.368,8.944,116.766
		L8.944,116.766z"/>
	<path fill="#FFFFFF" d="M2.125,359.721c-0.721,0.14-1.423,0.354-2.125,0.558v6.492c1.472-1.201,2.819-2.509,4.074-4.021
		C3.5,361.699,2.876,360.665,2.125,359.721L2.125,359.721z"/>
	<path fill="#FFFFFF" d="M6.111,377.443c0.282-1.174,0.397-2.38,0.466-3.576c-1.879-1.029-3.8-1.801-5.789-2.321
		c-0.032-0.772-0.214-1.539-0.356-2.294c-0.124-0.456-0.284-0.9-0.432-1.345v10.099c0.008-0.027,0.021-0.048,0.029-0.075
		C2.042,377.984,4.087,377.829,6.111,377.443L6.111,377.443z"/>
	<path fill="#FFFFFF" d="M0,385.896v2.481c0.287-0.284,0.614-0.525,0.89-0.82C0.654,386.958,0.273,386.47,0,385.896L0,385.896z"/>
</g>
</svg>
