<?xml version="1.0" encoding="utf-8"?>
<!-- Generator: Adobe Illustrator 16.0.0, SVG Export Plug-In . SVG Version: 6.00 Build 0)  -->
<!DOCTYPE svg PUBLIC "-//W3C//DTD SVG 1.1//EN" "http://www.w3.org/Graphics/SVG/1.1/DTD/svg11.dtd">
<svg version="1.1" id="Layer_1" xmlns="http://www.w3.org/2000/svg" xmlns:xlink="http://www.w3.org/1999/xlink" x="0px" y="0px"
	 width="362px" height="368.664px" viewBox="0 0 362 368.664" enable-background="new 0 0 362 368.664" xml:space="preserve">
<g>
	<g>
		<g id="XMLID_1_">
			<g>
				<path fill="#FFFFFF" d="M248.28,294.482c5.45,5.359,10.7,10.529,15.7,15.449c-21.171,12.851-45.511,19.71-70.91,19.71
					c-36.63,0-71.061-14.26-96.96-40.159c-45.63-45.641-52.3-115.68-20.04-168.46c26.45,26.7,59.14,59.72,91.83,92.74
					c17.61,17.78,35.24,35.57,51.87,52.36c-1.38,0.66-2.829,1.24-4.34,1.75c-4.67,1.58-9.75,2.36-15.27,2.36
					c-6.19,0-12.26-1.07-18.2-3.21c-5.95-2.15-11.21-5.12-15.78-8.931c-4.57-3.8-8.33-8.51-11.28-13.79
					c-2.95-5.279-4.42-10.64-4.42-17.64H134v57h16v-19.86c6,7.62,12.32,13.38,21.08,17.28c8.76,3.9,18.49,5.85,28.96,5.85
					c7.61,0,15-1.239,22.04-3.71c3.6-1.27,7.01-2.81,10.18-4.63C237.74,284.063,243.08,289.382,248.28,294.482z"/>
				<path fill="#FFFFFF" d="M244.48,233.262l35.52,35.53c-2.52,2.98-5.17,5.89-7.97,8.68c-6.23,6.23-12.96,11.801-20.09,16.63
					c-0.53-0.55-1.07-1.1-1.62-1.649c-7.99-8.15-16.521-16.64-25.29-25.47c-1.011-1-2.03-2.011-3.05-3.021
					c2.06-1.3,4.01-2.74,5.869-4.3c5.42-4.57,9.75-10.021,12.99-16.35C242.46,240.142,243.67,236.792,244.48,233.262z"/>
				<path fill="#FFFFFF" d="M226.13,223.252c0,5.33-1.02,10.09-3.07,14.28c-2.04,4.18-4.829,7.729-8.35,10.63
					c-1.59,1.32-3.3,2.49-5.13,3.52c-13.04-12.93-26.51-26.279-39.98-39.619c-39.95-39.55-79.89-79.101-108.66-107.57
					c4.94-7.39,10.65-14.41,17.17-20.93c2.8-2.8,5.7-5.46,8.69-7.98l39.02,39.02c-1.54,4.46-2.33,9.31-2.33,14.56
					c0,8.57,1.66,15.73,4.99,21.49c3.33,5.76,7.66,10.64,12.99,14.64c5.33,3.99,11.38,7.3,18.13,9.92
					c6.76,2.62,13.52,5.12,20.28,7.49c5.71,2.1,11.32,4.21,16.84,6.36c2.23,0.859,4.34,1.819,6.391,2.829l21.64,21.641
					C225.67,216.482,226.13,219.712,226.13,223.252z"/>
				<path fill="#FFFFFF" d="M143.2,131.982l24.61,24.61c-4.21-1.82-8.01-3.79-11.35-5.94c-4.09-2.61-7.35-5.64-9.78-9.06
					C144.74,138.842,143.59,135.642,143.2,131.982z"/>
				<path fill="#FFFFFF" d="M245.69,222.112c0,3.899-0.4,7.62-1.21,11.149l-19.73-19.729c-0.63-2.04-1.47-3.95-2.54-5.7
					c-2.62-4.28-6.14-7.95-10.57-10.99c-2.64-1.819-5.5-3.46-8.529-4.95l-35.271-35.28c0.92,0.41,1.87,0.79,2.83,1.18
					c5.38,2.14,10.87,4.31,16.49,6.5c7.04,2.47,14.04,5.23,20.99,8.28c6.939,3.05,13.18,6.71,18.699,10.99
					c5.521,4.28,10.04,9.54,13.561,15.77C243.93,205.572,245.69,213.162,245.69,222.112z"/>
				<path fill="#FFFFFF" d="M241,84.662v53h-17.29c0-6-1.17-10.91-3.5-15.81s-5.5-9.13-9.5-12.6c-3.99-3.47-8.56-6.23-13.7-8.28
					c-5.14-2.05-10.56-3.07-16.28-3.07c-5.04,0-9.85,0.57-14.42,1.71c-4.56,1.14-8.56,2.98-11.99,5.5
					c-3.42,2.52-6.16,5.78-8.21,9.78c-2.05,4-3.07,8.76-3.07,14.28c0,0.97,0.07,1.9,0.16,2.81l-17.38-17.38
					c0.69-2,1.52-3.94,2.53-5.78c3.23-5.95,7.48-10.97,12.71-15.06c5.24-4.09,11.35-7.21,18.29-9.35
					c6.95-2.15,14.13-3.22,21.46-3.22c9.04,0,17.459,1.86,25.13,5.57c7.659,3.71,13.06,9.38,18.06,16.99v-19.09H241z"/>
				<path d="M286.18,69.412c29.67,29.68,46.021,69.14,46.011,111.11c0,41.96-16.341,81.42-46.021,111.1
					c-6.25,6.25-12.939,11.9-19.979,16.94c-4.551-4.62-9.311-9.45-14.25-14.461c7.13-4.829,13.859-10.399,20.09-16.63
					c2.8-2.79,5.45-5.699,7.97-8.68l-35.52-35.53c0.81-3.529,1.21-7.25,1.21-11.149c0-8.95-1.761-16.54-5.28-22.78
					c-3.521-6.23-8.04-11.49-13.561-15.77c-5.52-4.28-11.76-7.94-18.699-10.99c-6.95-3.05-13.95-5.81-20.99-8.28
					c-5.62-2.19-11.11-4.36-16.49-6.5c-0.96-0.39-1.91-0.77-2.83-1.18l-0.01-0.01c-0.01,0-0.01-0.01-0.02-0.01l-24.61-24.61
					c-0.09-0.91-0.16-1.84-0.16-2.81c0-5.52,1.02-10.28,3.07-14.28c2.05-4,4.79-7.26,8.21-9.78c3.43-2.52,7.43-4.36,11.99-5.5
					c4.57-1.14,9.38-1.71,14.42-1.71c5.72,0,11.14,1.02,16.28,3.07c5.141,2.05,9.71,4.81,13.7,8.28c4,3.47,7.17,7.7,9.5,12.6
					s3.5,9.81,3.5,15.81H241v-53h-17v19.09c-5-7.61-10.4-13.28-18.06-16.99c-7.671-3.71-16.091-5.57-25.13-5.57
					c-7.33,0-14.51,1.07-21.46,3.22c-6.94,2.14-13.05,5.26-18.29,9.35c-5.23,4.09-9.48,9.11-12.71,15.06
					c-1.01,1.84-1.84,3.78-2.53,5.78L86.8,75.582c-2.99,2.52-5.89,5.18-8.69,7.98c-6.52,6.52-12.23,13.54-17.17,20.93
					c-5.2-5.16-10.03-9.95-14.44-14.31c5.14-7.29,10.96-14.25,17.47-20.77c29.68-29.67,69.13-46.02,111.1-46.02
					C217.04,23.392,256.5,39.742,286.18,69.412z"/>
				<path d="M266.19,308.563c2.279,2.319,4.52,4.6,6.699,6.81c6.99,7.08,13.33,13.66,18.98,19.45
					c5.66,5.79,10.57,10.859,14.59,15.05c8.05,8.39,12.65,13.18,12.65,13.18l-0.11,0.11l-53.83-53.83l0.13-0.13
					C265.6,308.992,265.9,308.782,266.19,308.563z"/>
				<path d="M264.79,309.442l14.49,14.489c-0.21,0.141-0.431,0.28-0.641,0.41c-2.409-2.34-4.89-4.77-7.439-7.29
					c-2.34-2.31-4.75-4.68-7.22-7.12C264.25,309.772,264.52,309.612,264.79,309.442z"/>
				<path d="M266.19,308.563c-0.29,0.22-0.591,0.43-0.891,0.64l-14.39-14.39c0.35-0.23,0.689-0.461,1.03-0.711
					C256.88,299.112,261.64,303.942,266.19,308.563z"/>
				<path d="M224.75,213.532l19.73,19.729c-0.811,3.53-2.021,6.88-3.641,10.051c-3.24,6.329-7.57,11.779-12.99,16.35
					c-1.859,1.56-3.81,3-5.869,4.3c-4.08-4.05-8.221-8.14-12.4-12.28c1.83-1.029,3.54-2.199,5.13-3.52
					c3.521-2.9,6.31-6.45,8.35-10.63c2.051-4.19,3.07-8.95,3.07-14.28C226.13,219.712,225.67,216.482,224.75,213.532z"/>
				<path d="M264.79,309.442c-0.271,0.17-0.54,0.33-0.81,0.489c-5-4.92-10.25-10.09-15.7-15.449
					c-5.2-5.101-10.54-10.42-16.021-15.891c0.46-0.26,0.92-0.52,1.37-0.8l31.54,31.54l53.83,53.83l-0.11,0.11
					c0,0-4.79-4.601-13.18-12.65c-4.19-4.021-9.26-8.93-15.05-14.58c-3.71-3.62-7.74-7.52-12.021-11.7
					c0.21-0.13,0.431-0.27,0.641-0.41L264.79,309.442z"/>
				<path d="M221.32,265.362l12.38,12.39c-0.021,0.01-0.05,0.03-0.07,0.04l-12.39-12.39
					C221.27,265.392,221.29,265.372,221.32,265.362z"/>
				<path d="M221.24,265.402l12.39,12.39c-0.45,0.28-0.91,0.54-1.37,0.8c-3.1-3.09-6.25-6.229-9.45-9.399
					c-1.01-1.021-2.02-2.04-3.04-3.07C220.27,265.892,220.76,265.652,221.24,265.402z"/>
				<path d="M222.81,269.192c3.2,3.17,6.351,6.31,9.45,9.399c-3.17,1.82-6.58,3.36-10.18,4.63c-7.04,2.471-14.43,3.71-22.04,3.71
					c-10.47,0-20.2-1.949-28.96-5.85c-8.76-3.9-15.08-9.66-21.08-17.28v19.86h-16v-57h16.48c0,7,1.47,12.36,4.42,17.64
					c2.95,5.28,6.71,9.99,11.28,13.79c4.57,3.811,9.83,6.78,15.78,8.931c5.94,2.14,12.01,3.21,18.2,3.21
					c5.52,0,10.6-0.78,15.27-2.36c1.511-0.51,2.96-1.09,4.34-1.75C220.79,267.152,221.8,268.172,222.81,269.192z"/>
				<path d="M224.75,213.532l-21.64-21.641c3.029,1.49,5.89,3.131,8.529,4.95c4.431,3.04,7.95,6.71,10.57,10.99
					C223.28,209.582,224.12,211.492,224.75,213.532z"/>
				<path d="M221.98,263.962c-0.41,0.271-0.83,0.53-1.25,0.79l-12.391-12.39c0.42-0.221,0.83-0.44,1.24-0.681
					C213.76,255.822,217.9,259.912,221.98,263.962z"/>
				<path d="M225.03,266.982c8.77,8.83,17.3,17.319,25.29,25.47c0.55,0.55,1.09,1.1,1.62,1.649c-0.341,0.25-0.681,0.48-1.03,0.711
					l14.39,14.39l-0.13,0.13l-31.54-31.54c0.021-0.01,0.05-0.03,0.07-0.04l-12.38-12.39c-0.03,0.01-0.051,0.029-0.08,0.04
					l-0.58-0.58l0.07-0.07c0.42-0.26,0.84-0.52,1.25-0.79C223,264.972,224.02,265.982,225.03,266.982z"/>
				<path d="M146.68,141.592c2.43,3.42,5.69,6.45,9.78,9.06c3.34,2.15,7.14,4.12,11.35,5.94c0.01,0,0.01,0.01,0.02,0.01l0.01,0.01
					l35.271,35.28c-2.051-1.01-4.16-1.97-6.391-2.829c-5.52-2.15-11.13-4.26-16.84-6.36c-6.76-2.37-13.52-4.87-20.28-7.49
					c-6.75-2.62-12.8-5.93-18.13-9.92c-5.33-4-9.66-8.88-12.99-14.64c-3.33-5.76-4.99-12.92-4.99-21.49c0-5.25,0.79-10.1,2.33-14.56
					l17.38,17.38C143.59,135.642,144.74,138.842,146.68,141.592z"/>
				<path d="M61.62,106.422c4.56,4.61,9.39,9.49,14.45,14.6c-32.26,52.78-25.59,122.82,20.04,168.46
					c25.9,25.899,60.33,40.159,96.96,40.159c25.399,0,49.739-6.859,70.91-19.71c2.47,2.44,4.88,4.811,7.22,7.12
					c2.55,2.521,5.03,4.95,7.439,7.29c-25.25,16.471-54.72,25.3-85.569,25.3c-41.97,0-81.42-16.34-111.1-46.02
					C28.48,250.132,21.7,167.342,61.62,106.422z"/>
				<path d="M61.68,106.332l14.5,14.5c-0.04,0.06-0.08,0.13-0.11,0.19c-5.06-5.11-9.89-9.99-14.45-14.6
					C61.64,106.392,61.66,106.362,61.68,106.332z"/>
				<path d="M60.94,104.492c-0.05,0.07-0.09,0.14-0.14,0.21l-14.39-14.39c0.03-0.04,0.06-0.09,0.09-0.13
					C50.91,94.542,55.74,99.332,60.94,104.492z"/>
				<path d="M18.61,62.562c0,0,10.63,10.52,27.89,27.62c-0.03,0.04-0.06,0.09-0.09,0.13l14.39,14.39c0.05-0.07,0.09-0.14,0.14-0.21
					c28.77,28.47,68.71,68.02,108.66,107.57c13.47,13.34,26.94,26.689,39.98,39.619c-0.41,0.24-0.82,0.46-1.24,0.681l12.391,12.39
					l-0.07,0.07L18.5,62.662L18.61,62.562z"/>
				<path d="M18.5,62.662l202.16,202.16l0.58,0.58c-0.48,0.25-0.971,0.489-1.471,0.72c-16.63-16.79-34.26-34.58-51.87-52.36
					c-32.69-33.02-65.38-66.04-91.83-92.74c0.03-0.06,0.07-0.13,0.11-0.19l-14.5-14.5c-0.02,0.03-0.04,0.06-0.06,0.09
					c-26.08-26.33-43.23-43.65-43.23-43.65L18.5,62.662z"/>
			</g>
			<g>
				<polyline fill="none" stroke="#000000" stroke-miterlimit="10" points="18.5,62.662 220.66,264.822 221.24,265.402 
					233.63,277.792 265.17,309.332 319,363.162 				"/>
				<path fill="none" stroke="#000000" stroke-miterlimit="10" d="M18.5,62.662l0.11-0.1c0,0,10.63,10.52,27.89,27.62
					c4.41,4.36,9.24,9.15,14.44,14.31c28.77,28.47,68.71,68.02,108.66,107.57c13.47,13.34,26.94,26.689,39.98,39.619
					c4.18,4.141,8.32,8.23,12.4,12.28c1.02,1.01,2.039,2.021,3.05,3.021c8.77,8.83,17.3,17.319,25.29,25.47
					c0.55,0.55,1.09,1.1,1.62,1.649c4.939,5.011,9.699,9.841,14.25,14.461c2.279,2.319,4.52,4.6,6.699,6.81
					c6.99,7.08,13.33,13.66,18.98,19.45c5.66,5.79,10.57,10.859,14.59,15.05c8.05,8.39,12.65,13.18,12.65,13.18l-0.11,0.11
					l-0.11,0.11c0,0-4.79-4.601-13.18-12.65c-4.19-4.021-9.26-8.93-15.05-14.58c-3.71-3.62-7.74-7.52-12.021-11.7
					c-2.409-2.34-4.89-4.77-7.439-7.29c-2.34-2.31-4.75-4.68-7.22-7.12c-5-4.92-10.25-10.09-15.7-15.449
					c-5.2-5.101-10.54-10.42-16.021-15.891c-3.1-3.09-6.25-6.229-9.45-9.399c-1.01-1.021-2.02-2.04-3.04-3.07
					c-16.63-16.79-34.26-34.58-51.87-52.36c-32.69-33.02-65.38-66.04-91.83-92.74c-5.06-5.11-9.89-9.99-14.45-14.6
					c-26.08-26.33-43.23-43.65-43.23-43.65L18.5,62.662z"/>
			</g>
		</g>
	</g>
</g>
</svg>
